<?xml version="1.0" encoding="utf-8"?>
<!-- Generator: Adobe Illustrator 25.2.1, SVG Export Plug-In . SVG Version: 6.00 Build 0)  -->
<svg version="1.1" id="Layer_1" xmlns="http://www.w3.org/2000/svg" xmlns:xlink="http://www.w3.org/1999/xlink" x="0px" y="0px"
	 width="1439.25px" height="701.25px" viewBox="0 0 1439.25 701.25" enable-background="new 0 0 1439.25 701.25"
	 xml:space="preserve">
<g id="Layer_3" opacity="0.8">
	
		<linearGradient id="SVGID_1_" gradientUnits="userSpaceOnUse" x1="719.625" y1="0.6398" x2="719.625" y2="701.8898" gradientTransform="matrix(1 0 0 -1 0 701.8898)">
		<stop  offset="0" style="stop-color:#C5AC90"/>
		<stop  offset="1" style="stop-color:#EBDED0"/>
	</linearGradient>
	<rect y="0" fill="url(#SVGID_1_)" width="1439.25" height="701.25"/>
</g>
<g id="Layer_2_1_">
	<g>
		<g>
			<path fill="#FFFFFF" d="M24.816,701.25c-7.621-4.964-15.283-9.882-22.968-14.755v-1.099c8.259,5.231,16.489,10.515,24.667,15.854
				H24.816z"/>
		</g>
		<g>
			<path fill="#FFFFFF" d="M45.089,701.25c-8.67-5.859-17.07-12.11-25.58-18.209c-5.846-4.188-11.75-8.303-17.661-12.406v-1.106
				c6.069,4.212,12.124,8.435,18.141,12.721c8.922,6.354,17.69,12.907,26.78,19H45.089z"/>
		</g>
		<g>
			<path fill="#FFFFFF" d="M71.389,701.25c-15.564-10.72-30.43-22.396-45.76-33.453c-4.662-3.362-9.278-5.893-14.309-8.548
				c-3.486-1.836-6.713-5.255-9.472-8.287v-1.441c3.344,3.539,7.205,7.91,11.346,9.448c4.844,1.795,8.739,5.044,12.916,8.03
				c15.762,11.278,30.969,23.291,46.948,34.251L71.389,701.25L71.389,701.25z"/>
		</g>
		<g>
			<path fill="#FFFFFF" d="M90.467,701.25c-31.537-20.818-61.211-44.161-88.619-69.92v-1.289
				c27.882,26.284,58.124,50.066,90.305,71.208L90.467,701.25L90.467,701.25z"/>
		</g>
		<g>
			<path fill="#FFFFFF" d="M114.014,701.25c-9.871-6.554-19.67-13.21-29.3-20.095c-13.624-9.744-26.411-20.499-39.486-30.922
				c-16.413-13.085-30.166-28.477-43.381-44.389v-1.38c12.916,15.644,26.341,30.815,42.31,43.722
				c23.237,18.784,47.006,36.37,71.714,53.063L114.014,701.25L114.014,701.25z"/>
		</g>
		<g>
			<path fill="#FFFFFF" d="M131.663,701.25c-28.152-18.385-55.436-38.388-79.868-61.229c-18.721-17.495-34.706-37.266-49.948-57.61
				v-1.636c15.03,20.055,30.74,39.574,48.999,57.064c24.923,23.879,53.345,44.497,82.491,63.412h-1.674V701.25z"/>
		</g>
		<g>
			<path fill="#FFFFFF" d="M154.555,701.25c-14.509-9.363-28.96-18.812-42.954-28.905c-19.265-13.905-36.808-29.531-53.386-46.4
				c-15.639-15.912-29.217-33.025-40.856-51.93c-5.014-8.143-10.076-16.293-15.511-24.169v-1.669
				c4.557,6.542,8.845,13.279,13.051,20.06c12.435,20.055,25.996,38.422,42.491,55.52c16.858,17.484,34.975,33.429,54.692,47.791
				c14.333,10.434,29.229,20.099,44.159,29.703L154.555,701.25L154.555,701.25z"/>
		</g>
		<g>
			<path fill="#FFFFFF" d="M173.644,701.25c-17.163-11.717-34.424-23.286-50.943-35.869c-5.716-4.355-11.773-11.045-18.592-13.524
				c-4.013-1.453-7.984-6.31-11.135-9.044c-9.806-8.514-18.925-17.752-27.513-27.435c-15.762-17.781-29.176-37.42-41.477-57.6
				c-3.227-5.288-7.175-9.592-10.28-14.959c-3.098-5.369-7-9.785-10.409-14.874c-0.474-0.719-0.961-1.425-1.447-2.132v-1.606
				c2.554,3.601,5.061,7.208,8.276,10.349c1.347,1.317,2.367,4.296,3.316,5.944c2.027,3.51,3.826,7.192,6.772,10.069
				c3.806,3.722,6.161,9.346,8.961,13.832c3.251,5.215,6.626,10.349,10.076,15.439c7.48,11.043,15.569,21.684,24.25,31.856
				c7.907,9.279,16.465,18.015,25.462,26.284c9.068,8.332,19.172,14.743,28.796,22.386c18.411,14.617,38.051,27.633,57.498,40.884
				L173.644,701.25L173.644,701.25z"/>
		</g>
		<g>
			<path fill="#FFFFFF" d="M191.182,701.25c-42.971-27.406-84.39-57.104-117.854-95.583c-17.08-19.632-30.172-41.726-44.055-63.531
				c-8.159-12.818-16.987-25.229-27.425-36.097v-1.425c27.642,28.221,44.09,66.934,69.318,97.087
				c33.863,40.474,77.179,71.242,121.732,99.549H191.182z"/>
		</g>
		<g>
			<path fill="#FFFFFF" d="M214.987,701.25c-21.878-13.615-43.417-27.64-64.316-42.714c-12.079-8.714-23.882-17.216-34.133-27.999
				c-4.692-4.935-10.619-8.959-15.018-14.042c-1.506-1.738-2.396-4.086-3.379-6.126c-2.115-4.365-5.659-7.546-8.922-11.079
				c-10.316-11.171-19.23-23.058-27.156-35.915c-7.556-12.253-14.62-24.784-22.393-36.912c-8.024-12.52-17.052-24.385-27.752-34.854
				c-3.169-3.1-6.555-5.75-10.07-8.161v-1.305c2.653,1.806,5.23,3.755,7.673,5.943c10.228,9.159,18.774,19.964,26.5,31.173
				c8.125,11.786,15.194,24.244,22.529,36.502c8.417,14.07,17.631,26.915,28.315,39.448c4.171,4.889,9.127,8.958,12.09,14.697
				c1.629,3.157,2.935,6.013,5.735,8.417c3.274,2.815,6.549,5.466,9.6,8.532c4.992,5.015,9.636,10.264,15.137,14.777
				c6.947,5.705,14.427,10.845,21.725,16.105c21.321,15.353,43.287,29.64,65.605,43.511h-1.77V701.25z"/>
		</g>
		<g>
			<path fill="#FFFFFF" d="M425.326,701.25c-16.367-28.558-29.523-58.745-38.589-90.305
				c-10.544-36.701-16.109-74.571-26.823-111.232c-10.262-35.117-24.437-71.151-46.76-100.678
				c-22.832-30.199-51.417-54.595-83.102-75.613c-36.603-24.277-76.558-42.776-117.244-59.474
				c-20.981-8.605-42.286-16.287-64.468-21.405c-15.306-3.521-30.858-5.915-46.491-7.579v-0.832
				c29.739,3.351,58.909,9.38,87.231,19.593c34.806,12.549,69.072,27.697,101.587,45.136
				c63.279,33.966,121.234,80.298,150.153,146.503c8.922,20.425,16.6,41.459,22.505,62.904c6.28,22.819,10.767,46.071,15.974,69.134
				c9.847,43.648,24.947,84.948,47.147,123.849L425.326,701.25L425.326,701.25z"/>
		</g>
		<g>
			<path fill="#FFFFFF" d="M442.366,701.25c-17.608-24.687-31.262-52.242-40.329-80.953c-2.694-8.532-5.425-17.046-7.738-25.685
				c-2.596-9.722-4.037-19.644-6.561-29.378c-2.326-8.959-4.575-17.934-6.426-27.002c-0.825-4.052-1.358-7.3-3.497-10.867
				c-1.786-2.993-1.909-8.293-2.706-11.677c-8.276-35.214-22.053-68.724-40.628-99.942c-4.129-6.93-8.217-13.917-12.523-20.749
				c-5.12-8.127-12.173-14.715-18.159-22.21c-10.83-13.558-24.49-25.468-38.009-36.404c-9.765-7.911-20.069-15.159-30.624-22.01
				c-5.371-3.487-10.854-6.815-16.377-10.075c-2.483-1.459-4.99-2.884-7.498-4.309c-2.719-1.538-4.844-4.296-7.703-5.903
				c-22.915-12.914-46.445-24.802-70.724-35.083c-24.074-10.201-48.964-18.499-74.397-24.79c-6.9-1.698-14.719-4.377-21.872-4.377
				c-6.128,0-11.874-1.915-17.866-3.147c-5.588-1.139-11.223-2.04-16.881-2.735v-0.844c9.572,1.208,19.072,2.93,28.497,5.243
				c4.229,1.038,8.71,0.593,13.021,1.482c4.411,0.923,8.798,1.926,13.18,2.963c9.325,2.211,18.562,4.776,27.735,7.556
				c34.138,10.327,66.817,24.768,98.284,41.227c7.896,4.138,15.697,8.434,23.459,12.811c3.468,1.949,5.992,4.936,9.507,6.942
				c4.352,2.495,8.652,5.071,12.916,7.693c14.415,8.856,28.215,18.647,41.254,29.338c13.583,11.142,26.506,23.422,37.419,37.094
				c4.757,5.956,10.256,11.079,14.561,17.399c4.909,7.209,9.115,14.966,13.613,22.425c13.226,21.941,23.94,45.221,32.035,69.419
				c4.311,12.879,7.732,26.033,10.626,39.277c0.527,2.406,1.429,4.029,2.67,6.11c1.201,2.005,1.148,5.625,1.593,7.898
				c1.477,7.551,3.357,15.022,5.261,22.483c3.426,13.403,5.717,27.012,9.513,40.336c3.83,13.444,8.247,26.74,13.437,39.745
				c8.558,21.445,19.616,41.858,33.095,60.7L442.366,701.25L442.366,701.25z"/>
		</g>
		<g>
			<path fill="#FFFFFF" d="M455.586,701.25c-40.445-51.205-52.858-115.825-69.54-177.39c-9.249-34.142-20.191-67.943-36.915-99.367
				c-17.151-32.233-41.144-61.178-68.351-85.843c-5.038-4.571-10.391-8.776-16.015-12.64c-4.791-3.282-9.782-5.563-14.012-9.517
				c-10.233-9.552-21.942-17.473-33.856-24.871c-24.145-14.988-50.224-27.765-76.441-38.913
				C96.36,233.96,49.576,221.581,1.849,216.293v-0.945c28.216,3.122,56.086,8.708,83.364,16.64
				c36.533,10.623,70.648,26.079,104.347,43.289c16.694,8.526,32.878,17.963,47.938,29.076c7.023,5.175,13.144,12.276,20.764,16.528
				c7.229,4.023,13.825,9.084,20.091,14.396c26.798,22.715,50.012,51.199,67.456,81.301c26.399,45.563,38.6,97.081,51.74,147.357
				c12.746,48.76,27.413,97.315,59.236,137.315L455.586,701.25L455.586,701.25z"/>
		</g>
		<g>
			<path fill="#FFFFFF" d="M468.906,701.25c-42.936-51.216-58.102-117.632-75.674-180.395
				c-10.35-36.986-22.833-73.14-41.706-106.894c-18.328-32.786-44.318-61.601-72.786-86.367
				c-39.708-34.559-86.334-62.267-134.617-83.752c-26.026-11.58-53.544-18.853-81.285-25.315
				c-20.11-4.673-40.471-8.149-60.989-10.349v-0.9c30.072,3.305,59.689,9.438,88.988,17.199
				c36.733,9.722,70.982,25.235,103.907,43.734c63.355,35.584,123.22,83.774,158.681,147.214
				c26.845,48.02,39.193,101.15,54.054,153.432c13.402,47.13,30.576,94.375,62.658,132.392L468.906,701.25L468.906,701.25z"/>
		</g>
		<g>
			<path fill="#FFFFFF" d="M485.395,701.25c-7.943-8.44-15.341-17.337-22.077-26.768c-5.055-7.066-8.863-16.167-15.084-22.242
				c-5.4-5.272-8.352-15.109-11.24-21.935c-14.486-34.251-21.831-70.649-31.261-106.393c-9.619-36.457-22.341-73.232-40.916-106.308
				c-17.367-30.922-40.276-59.367-65.838-84.173c-21.627-20.984-45.853-39.539-70.918-56.431
				c-25.041-16.88-52.033-30.934-80.067-42.435c-46.502-19.091-96.046-30.42-146.146-35.652v-0.935
				c59.366,6.257,117.655,21.188,171.503,46.799c15.944,7.581,31.367,16.196,46.256,25.6c7.235,4.571,14.294,9.392,21.235,14.384
				c7.023,5.049,14.492,13.165,22.621,16.117c2.414,0.878,4.428,3.796,6.232,5.46c3.263,3.021,6.654,5.903,10.046,8.776
				c7.328,6.212,14.521,12.446,21.41,19.126c11.978,11.626,23.062,24.1,33.37,37.157c18.973,24.021,34.958,50.037,46.902,78.053
				c12.922,30.318,22.265,61.913,30.22,93.77c7.866,31.503,15.475,63.138,28.953,92.909c1.564,3.454,3.251,6.862,4.974,10.246
				c1.886,3.705,5.002,6.156,7.017,9.66c3.895,6.781,8.213,13.318,12.77,19.69c6.437,9.015,13.618,17.484,21.28,25.525H485.395z"/>
		</g>
		<g>
			<path fill="#FFFFFF" d="M498.311,701.25c-8.676-8.366-16.987-17.074-24.585-26.421c-10.9-13.403-19.588-28.506-27.711-43.625
				c-3.966-7.374-6.279-15.568-8.833-23.479c-3.111-9.614-6.626-19.239-9.074-29.036c-4.499-17.958-8.991-35.914-13.923-53.763
				c-10.029-36.263-22.377-71.926-39.949-105.414c-16.401-31.253-38.163-60.163-63.133-85.375
				c-9.859-9.95-20.414-19.217-31.397-27.959c-2.67-2.131-4.487-4.628-6.614-7.249c-2.658-3.272-7.252-5.79-10.66-8.321
				c-6.163-4.559-12.325-9.129-18.551-13.621c-25.516-18.385-53.62-34.319-82.627-46.902
				c-50.369-21.838-104.593-34.502-159.408-39.483v-0.923c66.711,6.098,132.064,23.639,191.103,55.121
				c17.204,9.175,33.687,18.796,49.548,30.068c7.51,5.334,14.879,10.851,22.277,16.321c3.064,2.268,6.39,4.309,8.991,7.089
				c3.32,3.556,6.104,6.816,9.946,9.916c26.559,21.394,49.537,46.681,68.938,74.411c35.402,50.607,54.089,108.816,69.271,167.715
				c8.095,31.418,14.896,64.688,32.1,92.739c8.036,13.107,15.522,25.639,25.65,37.43c6.244,7.271,12.98,14.127,19.933,20.761
				L498.311,701.25L498.311,701.25z"/>
		</g>
		<g>
			<path fill="#FFFFFF" d="M407.818,701.25c-14.175-29.623-23.676-61.053-32.275-92.63c-5.037-18.482-8.851-37.254-12.577-56.02
				c-3.743-18.904-6.777-38.195-12.312-56.694c-10.761-35.932-25.744-69.817-49.316-99.514
				c-20.542-25.879-46.256-47.318-74.233-65.185c-36.796-23.513-78.005-40.656-118.112-57.958
				c-10.245-4.422-20.5-8.811-30.745-13.233c-10.708-4.628-23.354-6.269-34.747-8.821c-13.789-3.089-27.66-5.859-41.653-7.774
				v-0.923c10.104,1.391,20.15,3.203,30.155,5.266c9.418,1.937,18.791,4.126,28.162,6.28c4.687,1.083,9.367,2.155,14.052,3.226
				c4.429,0.991,9.121,3.932,13.291,5.733c36.985,15.934,74.058,31.686,109.817,50.15c58.64,30.262,111.522,75.739,137.553,136.547
				c8.787,20.528,16.407,42.012,21.129,63.788c4.903,22.59,8.926,45.352,13.882,67.937c8.932,40.674,20.642,82.036,38.953,119.826
				L407.818,701.25L407.818,701.25z"/>
		</g>
		<g>
			<path fill="#FFFFFF" d="M237.263,701.25c-9.448-5.083-18.966-10.047-28.034-15.734c-14.837-9.307-29.194-19.599-42.948-30.347
				c-13.63-10.657-27.325-20.5-39.966-32.337c-11.604-10.856-22.347-22.567-32.041-35.082C75.77,563.871,62.591,536.465,45,511.943
				c-12.079-16.841-26.213-32.336-43.153-44.145v-1.179c13.782,9.466,25.767,21.376,36.194,34.581
				c18.903,23.946,32.51,51.033,49.713,76.04c20.303,29.521,46.837,52.988,75.517,74.462c14.567,10.908,29.093,21.787,44.405,31.721
				c10.11,6.553,20.876,12.093,31.525,17.826h-1.938V701.25z"/>
		</g>
		<g>
			<path fill="#FFFFFF" d="M514.132,701.25c-9.981-8.599-19.693-17.256-28.128-27.68c-10.684-13.204-19.541-27.742-27.331-42.724
				c-16.584-31.897-24.742-66.547-33.956-100.934c-8.939-33.356-19.482-66.387-34.032-97.857
				c-7.093-15.335-15.288-30.169-24.514-44.383c-4.499-6.935-9.337-13.654-14.374-20.22c-2.964-3.864-6.063-7.625-9.214-11.341
				c-2.483-2.935-4.117-6.856-6.624-9.592c-42.848-46.793-91.22-90.015-149.392-117.802c-14.695-7.01-29.967-12.823-45.577-17.553
				c-7.714-2.348-15.534-4.309-23.406-6.053c-8.042-1.778-15.236-2.94-22.57-6.725c-8.365-4.331-19.734-5.071-28.936-6.895
				c-9.595-1.892-19.224-3.613-28.872-5.209c-11.744-1.937-23.536-3.612-35.356-5.037v-0.912
				c10.291,1.254,20.566,2.679,30.811,4.286c19.687,3.1,40.51,5.779,59.594,11.545c2.806,0.844,5.39,2.564,7.996,3.841
				c4.183,2.04,9.062,2.462,13.585,3.363c8.587,1.732,17.086,3.898,25.492,6.338c15.152,4.377,29.896,10.041,44.206,16.572
				c58.658,26.785,107.369,70.244,150.434,116.702c5.037,5.431,8.634,11.608,13.349,17.343c5.324,6.467,10.314,13.198,15.089,20.06
				c9.705,13.951,18.111,28.734,25.614,43.916c14.749,29.862,25.317,61.538,34.325,93.44c9.994,35.356,17.263,71.606,33.33,105.002
				c7.632,15.866,16.6,31.1,27.185,45.262c9.512,12.743,20.742,23.052,32.608,33.247H514.132z"/>
		</g>
		<g>
			<path fill="#FFFFFF" d="M527.154,701.25c-19.963-15.718-36.844-34.781-50.539-56.1c-8.493-13.227-15.523-27.322-21.469-41.802
				c-7.287-17.758-10.32-36.969-14.737-55.519c-1.066-4.479-2.261-8.925-3.544-13.347c-0.75-2.582-1.67-4.998-3.192-7.249
				c-0.457-0.672-1.524-2.228-1.682-3.066c-0.65-3.527-0.31-7.072-1.101-10.628c-1.23-5.568-3.749-10.896-6.068-16.082
				c-7.071-15.832-11.259-33.06-17.708-49.2c-14.099-35.311-32.673-68.147-57.498-97.326c-10.66-12.533-22.158-24.363-33.909-35.909
				c-5.677-5.573-11.445-11.067-17.227-16.527c-3.21-3.032-6.426-6.053-9.647-9.073c-2.466-2.313-5.998-3.294-8.295-5.516
				c-12.371-12.002-25.649-22.967-39.69-33.053c-14.135-10.156-29.042-20.425-44.87-27.868
				C134.913,194.262,68.7,180.562,1.847,172.458v-0.923c29.751,3.602,59.355,8.297,88.596,14.851
				c38.314,8.583,75.018,20.984,110.332,37.853c16.127,7.694,31.415,19.057,45.719,29.566
				c13.653,10.041,25.527,22.784,39.661,31.834c2.981,1.915,5.618,5.254,8.189,7.672c3.198,3.009,6.386,6.018,9.56,9.038
				c6.789,6.439,13.496,12.959,20.092,19.593c12.705,12.753,24.801,26.067,35.989,40.12c20.601,25.884,35.737,55.548,48.044,85.951
				c6.777,16.755,11.17,34.553,18.527,51.029c2.794,6.247,6.092,13.216,6.092,20.152c0,2.724,0.357,5.231,1.845,7.574
				c0.481,0.757,1.652,2.2,1.922,3.066c1.388,4.399,2.642,8.821,3.802,13.284c4.645,17.906,7.626,36.171,13.53,53.763
				c5.208,15.53,13.081,30.483,21.615,44.491c13.953,22.91,31.97,43.329,53.286,59.879L527.154,701.25L527.154,701.25z"/>
		</g>
		<g>
			<path fill="#FFFFFF" d="M546.173,701.25c-21.632-15.439-40.868-33.67-56.402-55.263c-10.45-14.515-18.628-32.312-24.321-49.096
				c-6.22-18.322-11.253-36.827-16.349-55.467c-5.084-18.568-10.538-37.038-16.729-55.281c-2.964-8.754-6.168-17.427-9.554-26.032
				c-1.699-4.327-3.485-8.611-5.307-12.891c-2.056-4.845-2.975-9.825-5.389-14.607c-8.727-17.28-16.196-35.613-27.004-51.758
				c-5.271-7.87-10.233-16.493-16.477-23.639c-5.799-6.645-11.645-13.249-17.531-19.82
				c-43.551-48.555-91.319-95.002-150.733-124.704c-33.699-16.845-70.929-26.955-107.662-35.299
				c-29.967-6.804-60.351-11.694-90.868-15.512v-0.9c29.809,3.738,59.471,8.536,88.806,15.011
				c36.358,8.012,72.969,18.122,106.56,34.125c60.591,28.872,109.157,76.275,153.204,125.114
				c5.453,6.053,10.842,12.151,16.208,18.266c5.395,6.144,9.671,12.737,14.264,19.468c5.26,7.722,10.221,15.295,14.404,23.628
				c4.533,9.015,8.955,18.094,13.437,27.133c2.103,4.24,4.223,8.469,6.366,12.691c1.518,2.997,1.359,5.283,2.402,8.417
				c3.151,9.46,7.709,18.624,11.171,28.01c6.66,18.055,12.313,36.456,17.596,54.937c5.348,18.693,9.817,37.613,15.839,56.112
				c6.092,18.705,13.584,36.376,23.466,53.502c14.772,25.594,37.511,46.697,62.095,63.857h-1.492V701.25z"/>
		</g>
		<g>
			<path fill="#FFFFFF" d="M560.39,701.25c-0.44-0.308-0.855-0.627-1.201-0.963c-6.18-6.041-14.012-10.372-20.847-15.706
				c-6.467-5.049-12.482-10.617-18.23-16.424c-2.993-3.021-5.846-6.173-8.662-9.346c-2.871-3.232-4.757-7.101-7.738-10.264
				c-4.786-5.072-7.715-12.385-11.293-18.311c-5.014-8.303-9.296-17.017-13.174-25.879c-6.959-15.9-12.055-32.524-16.77-49.169
				c-4.962-17.525-9.46-35.162-14.943-52.545c-2.613-8.293-6.004-16.242-8.552-24.545c-2.9-9.455-7.37-18.835-9.59-28.398
				c-2.185-9.404-6.742-18.163-10.865-26.905c-4.293-9.107-8.898-18.072-13.636-26.968c-9.285-17.427-18.721-34.558-31.543-49.78
				c-11.768-13.974-25.1-26.808-38.051-39.733c-13.396-13.37-27.085-26.443-41.073-39.219
				c-14.814-13.529-29.897-26.523-46.087-38.457c-7.311-5.391-14.761-10.577-22.54-15.295c-3.602-2.2-7.322-4.901-11.663-5.14
				c-2.694-0.148-6.959-4.081-9.343-5.403c-8.424-4.651-17.643-7.808-26.717-10.999c-9.272-3.26-18.316-7.124-27.758-9.871
				c-18.827-5.482-38.626-8.332-57.82-12.344c-30.033-6.304-60.14-12.264-90.447-17.131v-0.923
				c30.389,4.879,60.579,10.863,90.698,17.153c19.243,4.023,38.872,7.124,57.821,12.355c8.768,2.416,17.098,6.098,25.65,9.129
				c8.457,2.987,16.898,5.95,25.005,9.769c4.188,1.983,8.154,4.33,12.002,6.86c1.576,1.038,2.29,0.251,3.79,0.65
				c0.797,0.217,2.842,1.437,3.292,1.676c8.704,4.662,16.846,10.28,24.825,16.025c15.176,10.92,29.276,22.704,43.164,35.151
				c14.129,12.652,27.894,25.691,41.408,38.958c13.624,13.393,27.636,26.785,40.201,41.135c24.607,28.107,41.524,62.888,56.367,96.7
				c3.292,7.506,5.09,15.382,8.054,23.018c3.666,9.42,5.693,19.387,9.601,28.716c6.911,16.475,10.948,34.364,15.634,51.535
				c4.733,17.337,9.577,34.65,15.863,51.525c3.308,8.873,7.152,17.541,11.439,26.004c4.147,8.19,9.442,15.74,13.537,23.936
				c1.658,3.323,4.328,5.693,6.449,8.668c2.676,3.75,5.242,7.431,8.347,10.873c5.998,6.645,12.46,12.863,19.283,18.693
				c9.103,7.773,18.973,14.857,29.265,21.188L560.39,701.25L560.39,701.25z"/>
		</g>
		<g>
			<path fill="#FFFFFF" d="M1398.09,0.965c13.274,17.302,26.583,34.889,43.312,48.862v1.197
				c-17.245-14.247-30.858-32.313-44.482-50.06h1.17V0.965z"/>
		</g>
		<g>
			<path fill="#FFFFFF" d="M524.805,242.726c25.897-23.685,58.277-41.079,90.282-55.463c33.863-15.216,71.345-20.06,108.184-22.602
				c19.382-1.334,38.795-1.995,58.183-3.191c18.709-1.152,37.466-2.405,55.53-7.603c31.62-9.096,58.553-28.86,82.755-50.082
				c12.055-10.578,23.571-21.725,35.181-32.769c5.834-5.54,11.574-11.193,17.83-16.277c7.532-6.143,15.522-11.865,21.743-19.217
				c3.385-3.978,8.552-7.055,12.687-10.292c5.202-4.069,10.415-8.149,15.617-12.219c5.096-4,10.168-8.036,15.264-12.047h1.5
				c-11.856,9.358-23.723,18.681-35.625,27.982c-6.9,5.391-12.37,11.66-19.167,17.199c-7.555,6.154-15.089,12.229-22.176,18.897
				c-22.751,21.383-44.799,43.643-70.314,61.948c-25.34,18.19-53.69,30.193-85.087,33.372c-38.624,3.898-77.572,3.522-116.132,8.207
				c-19.897,2.404-39.567,6.473-58.557,12.822c-17.966,5.996-35.204,14.829-51.728,23.89c-16.483,9.038-32.158,19.433-46.831,31.07
				c-15.241,12.104-25.879,26.864-30.753,45.66c-10.192,39.31,22.47,71.612,45.362,99.372c24.168,29.305,47.083,59.566,70.103,89.73
				c5.764,7.551,11.539,15.103,17.332,22.631c3.345,4.343,6.748,8.451,10.69,12.304c3.041,2.969,6.508,5.733,8.698,9.386
				c4.557,7.591,12.254,13.791,18.592,20.043c7.44,7.346,15.259,13.876,23.659,20.14c7.38,5.504,14.31,11.227,22.265,15.968
				c8.61,5.13,17.596,9.643,26.699,13.871c18.497,8.6,37.84,14.492,57.438,20.174c37.571,10.885,75.75,19.576,113.028,31.436
				c16.917,5.379,33.482,11.688,49.192,19.889c10.989,5.733,27.038,13.449,16.741,27.07c-5.354,7.073-14.258,10.868-22.387,13.911
				c-2.859,1.071-5.693,2.183-8.528,3.311h-3.515c0.317-0.131,0.644-0.273,0.961-0.405c8.857-3.608,17.958-5.875,25.984-11.203
				c4.487-2.969,9.759-8.002,10.192-13.593c0.539-6.987-6.772-10.77-11.95-13.854c-8.365-4.97-17.174-9.192-26.136-13.034
				c-35.661-15.262-74.227-23.73-111.645-33.732c-19.225-5.135-38.379-10.526-57.346-16.505
				c-17.726-5.579-34.607-13.085-50.926-21.855c-16.086-8.646-31.128-19.833-44.74-31.847c-6.642-5.858-12.811-12.207-19.043-18.47
				c-6.455-6.48-11.376-13.678-17.901-20.054c-13.414-13.102-23.952-29.584-35.275-44.43c-11.702-15.336-23.412-30.66-35.303-45.859
				c-12.435-15.9-25.124-31.624-38.133-47.079c-11.041-13.119-21.96-26.01-29.33-41.556
				C494.392,299.122,501.065,264.438,524.805,242.726z"/>
		</g>
		<g>
			<path fill="#FFFFFF" d="M583.515,701.25c-3.022-1.692-5.488-3.499-7.937-5.893c-3.826-3.744-9.812-6.212-14.292-9.209
				c-14.585-9.74-27.449-21.753-39.92-33.909c-2.249-2.188-3.309-5.665-5.517-8.093c-2.279-2.501-5.313-5.231-7.17-8.012
				c-4.82-7.237-10.081-13.786-13.988-21.611c-7.884-15.791-12.424-33.144-17.298-49.968c-10.737-37.078-20.73-74.36-33.177-110.936
				c-6.449-18.943-13.666-37.636-21.861-55.929c-0.966-2.155-2.02-7.368-3.198-9.169c-2.331-3.568-4.088-7.631-6.256-11.313
				c-5.131-8.724-11.064-16.988-17.432-24.893c-10.971-13.609-24.174-25.497-36.323-38.102
				c-11.774-12.207-23.413-24.54-35.28-36.667c-23.882-24.392-48.952-47.814-77.467-67.02c-14.415-9.712-29.493-17.633-45.507-24.46
				c-8.922-3.807-17.614-6.656-26.992-9.176c-4.405-1.185-8.822-2.302-13.262-3.373c-4.094-0.98-9.928-1.071-13.654-2.872
				c-8.839-4.297-18.381-5.596-27.969-7.557c-10.257-2.108-20.508-4.251-30.746-6.417c-19.506-4.148-38.97-8.457-58.394-12.937
				c-4.692-1.083-9.383-2.177-14.075-3.282c-4.423-1.049-9.343-0.571-13.953-1.106v-0.878c3.877,0.605,7.772,0.764,11.726,0.514
				c4.177-0.251,10.11,2.37,14.211,3.317c19.418,4.513,38.888,8.811,58.388,12.982c9.436,2.017,18.879,3.978,28.327,5.938
				c9.138,1.88,19.594,2.701,28.152,6.405c8.493,3.681,18.094,4.889,27.079,7.215c8.775,2.256,17.62,4.365,25.955,7.921
				c16.091,6.862,31.332,14.224,46.093,23.628c13.677,8.708,26.541,18.59,38.87,29.019c25.779,21.805,48.829,46.48,72.083,70.781
				c11.915,12.435,24.584,24.312,36.165,37.037c11.838,12.994,21.878,27.498,30.09,42.919c1.154,2.171,2.05,3.545,2.296,5.955
				c0.457,4.462,3.859,9.529,5.635,13.638c3.696,8.548,7.122,17.199,10.415,25.901c6.817,17.997,12.775,36.303,18.403,54.686
				c11.241,36.696,19.624,74.549,32.774,110.635c3.081,8.451,6.449,16.737,11.029,24.533c4.616,7.864,11.007,15.119,16.975,21.998
				c1.757,2.023,3.433,3.357,4.376,5.836c1.64,4.308,7.351,8.275,10.684,11.403c7.357,6.907,15.025,13.49,23.102,19.582
				c7.258,5.47,16.407,9.345,22.833,15.626c2.08,2.029,4.511,3.762,7.14,5.312L583.515,701.25L583.515,701.25z"/>
		</g>
		<g>
			<path fill="#FFFFFF" d="M521.325,225.913c28.269-23.319,63.525-39.858,97.189-54.344c17.263-7.421,35.075-13.154,53.62-16.584
				c18.557-3.431,37.5-4.582,56.332-5.482c38.39-1.846,77.602-2.303,113.953-15.969c17.561-6.599,32.193-17.074,47.189-27.902
				c15.652-11.296,31.21-22.716,45.162-36.006c12.816-12.219,26.335-22.967,40.616-33.486
				c15.464-11.398,30.519-23.332,45.619-35.174h1.476c-11.984,9.369-23.969,18.727-36.013,28.016
				c-14.467,11.158-29.709,21.37-43.205,33.68c-13.215,12.071-26.102,23.845-40.534,34.559
				c-14.433,10.713-28.808,22.078-44.834,30.432c-31.667,16.493-68.253,19.82-103.468,21.599
				c-40.16,2.028-80.091,2.815-118.335,16.378c-18.879,6.69-36.867,15.604-54.721,24.529c-16.858,8.434-33.37,17.45-48.741,28.301
				c-29.463,20.812-56.379,50.389-55.658,87.923c0.38,19.809,9.987,36.205,23.318,50.498c13.244,14.196,27.477,27.555,41.073,41.437
				c26.611,27.178,48.753,57.485,70.918,88.123c22.41,30.991,48.213,59.365,78.825,82.874
				c31.202,23.964,67.689,36.809,105.236,47.99c35.767,10.646,72.762,18.989,107.042,33.772c11.48,4.952,25.655,12.144,27.413,25.65
				c1.406,10.8-10.133,18.835-19.833,24.523h-2.215c1.29-0.803,2.59-1.607,3.878-2.451c9.056-5.961,19.47-12.993,16.682-25.087
				c-2.05-8.884-11.68-14.475-19.248-18.464c-8.213-4.337-17.127-7.711-25.856-10.936c-18.064-6.674-37.125-11.307-55.635-16.669
				c-19.33-5.596-38.694-11.119-57.849-17.268c-34.255-10.987-65.071-27.19-92.445-50.185c-28.672-24.084-51.909-52.436-73.5-82.578
				c-23.167-32.336-47.938-62.512-76.125-90.819c-12.63-12.686-26.764-24.91-37.6-39.146c-9.718-12.771-14.761-27.36-15.066-43.272
				C475.367,272.017,497.351,245.7,521.325,225.913z"/>
		</g>
		<g>
			<path fill="#FFFFFF" d="M607.971,701.25c-44.295-19.759-83.962-50.373-104.774-94.346c-7.17-15.147-10.966-31.561-15.382-47.609
				c-5.155-18.715-10.21-37.459-15.412-56.157c-10.379-37.277-21.52-74.366-35.099-110.663c-3.467-9.272-6.707-18.67-12.137-27.046
				c-5.752-8.885-12.535-17.502-19.582-25.43c-5.764-6.479-12.143-12.441-18.539-18.31c-7.036-6.462-13.853-13.518-21.345-19.456
				c-30.027-23.81-55.641-52.772-84.098-78.349c-14.327-12.868-29.164-25.075-45.431-35.562
				c-16.243-10.463-34.173-15.9-52.654-21.279c-19.218-5.596-38.179-11.205-57.919-14.806c-19.606-3.578-39.339-6.405-58.71-11.101
				c-16.255-3.955-32.352-8.617-48.501-12.948c-5.466-1.459-11.013-2.906-16.542-4.446v-0.809
				c10.163,2.861,20.467,5.346,30.529,8.058c19.266,5.197,38.455,10.521,58.102,14.19c19.799,3.705,39.754,6.531,59.39,11.068
				c18.738,4.32,37.517,10.703,55.822,16.538c33.898,10.805,61.457,36.337,86.833,59.781c14.099,13.039,27.752,26.512,41.518,39.881
				c13.695,13.29,28.374,25.315,42.35,38.252c12.939,11.99,26.218,23.491,37.149,37.339c5.67,7.186,11.375,14.607,15.867,22.562
				c4.551,8.053,7.252,17.416,10.45,26.033c13.467,36.307,24.35,73.47,34.694,110.719c5.202,18.727,10.257,37.487,15.418,56.226
				c4.668,16.938,9.114,33.623,17.261,49.358c14.229,27.48,37.143,49.752,63.027,66.899c12.559,8.315,25.961,15.382,39.825,21.411
				h-2.11V701.25z"/>
		</g>
		<g>
			<path fill="#FFFFFF" d="M141.884,29.175c31.244,0.467,62.389,3.624,93.475-1.049c14.743-2.199,28.357-7.032,41.724-13.426
				c8.669-4.149,17.115-8.549,25.058-13.735h1.552c-6.437,4.24-13.209,7.967-20.208,11.58c-11.75,6.052-23.911,11.227-36.809,14.441
				c-29.159,7.237-60.169,4.604-89.86,3.521c-15.546-0.57-31.122-0.957-46.615,0.582c-16.085,1.606-32,4.604-47.686,8.388
				C41.85,44.47,21.659,51.162,1.848,58.775V57.83C46.653,40.732,93.401,28.434,141.884,29.175z"/>
		</g>
		<g>
			<path fill="#FFFFFF" d="M1441.402,531.022c-13.801,2.155-27.484,5.135-41.319,7.13c-7.241,1.042-13.941,3.636-21.193,5.128
				c-9.407,1.938-18.697,4.349-27.906,7.039c-37.875,11.073-73.607,29.264-109.196,45.848
				c-17.819,8.303-35.696,16.515-53.808,24.191c-17.409,7.375-35.286,13.621-52.695,20.978c-8.002,3.385-15.862,7.067-23.594,11.005
				c-3.971,2.023-7.884,4.177-11.761,6.371c-4.651,2.633-11.446,5.482-14.621,9.841c-6.62,9.125,5.202,16.755,11.856,20.619
				c8.118,4.702,17.057,7.933,26.031,10.669c1.605,0.49,3.222,0.957,4.85,1.408h-3.245c-1.91-0.547-3.807-1.111-5.705-1.71
				c-7.122-2.262-14.012-5.123-20.618-8.582c-4.675-2.457-12.231-5.75-14.292-10.983c-5.378-13.586,9.266-18.743,19.189-24.26
				c15.241-8.473,31.338-15.381,47.61-21.73c37.208-14.515,73.361-30.756,109.537-47.563c34.067-15.825,68.31-31.743,104.955-41.014
				c3.62-0.913,7.275-1.739,10.93-2.542c4.1-0.901,9.572-1.004,13.215-3.089c5.693-3.248,12.992-2.877,19.447-3.954
				c10.802-1.801,21.532-4.001,32.334-5.699L1441.402,531.022L1441.402,531.022z"/>
		</g>
		<g>
			<path fill="#FFFFFF" d="M382.431,701.25c-0.621-6.035-1.371-12.013-2.893-18.019c-2.495-9.854-5.23-19.645-7.879-29.459
				c-4.978-18.43-9.044-36.918-12.295-55.706c-6.009-34.724-11.375-69.619-21.197-103.562
				c-10.029-34.633-25.288-68.285-48.56-96.402c-19.886-24.021-45.167-43.073-72.148-58.904
				c-34.014-19.958-70.84-34.809-106.73-51.153c-4.505-2.052-8.986-4.138-13.461-6.247c-4.669-2.2-11.019-6.724-16.237-6.998
				c-4.757-0.251-9.613-3.157-14.052-4.753c-5.764-2.074-11.645-3.829-17.549-5.472c-15.581-4.331-31.537-7.204-47.581-9.448v-0.878
				c9.29,1.311,18.551,2.827,27.759,4.673c9.003,1.811,17.901,4.057,26.693,6.668c4.41,1.299,8.768,2.792,13.098,4.342
				c2.173,0.787,4.316,1.63,6.466,2.473c2.233,0.878,4.575,0.878,6.748,1.562c6.374,2.03,12.441,5.779,18.486,8.605
				c7.282,3.42,14.621,6.737,21.961,10.019c14.128,6.338,28.316,12.549,42.385,19.012c55.424,25.486,109.736,57.246,142.175,109.836
				c26.025,42.2,37.535,90.476,46.134,138.501c4.521,25.241,8.054,50.675,14.146,75.613c3.133,12.811,6.748,25.508,10.157,38.251
				c1.616,6.059,3.684,12.264,4.503,18.482c0.393,2.981,0.662,5.973,0.92,8.965h-1.049V701.25z"/>
		</g>
		<g>
			<path fill="#FFFFFF" d="M270.598,701.25c-25.755-13.609-51.054-27.993-75.527-43.74c-15.353-9.876-30.698-19.98-44.464-31.925
				c-12.799-11.108-24.262-23.628-34.759-36.821c-20.449-25.697-35.256-54.528-53.075-81.848
				c-15.416-23.633-36.135-43.62-60.924-57.28v-1.032c21.404,11.683,39.965,28.044,54.487,47.449
				c10.432,13.934,18.545,29.35,27.536,44.173c8.664,14.276,17.807,28.267,27.847,41.659c10.444,13.946,22.089,26.996,34.922,38.89
				c14.286,13.244,30.629,24.043,46.973,34.689c25.486,16.596,52.003,31.602,78.96,45.786L270.598,701.25L270.598,701.25z"/>
		</g>
		<g>
			<path fill="#FFFFFF" d="M639.754,701.25c-20.331-6.953-39.961-15.706-58.417-26.854c-14.422-8.714-27.9-18.733-39.187-31.15
				c-10.649-11.717-18.657-25.343-25.323-39.523c-7.392-15.717-12.734-32.261-17.151-48.981c-2.266-8.583-4.241-17.24-6.173-25.897
				c-0.569-2.547-2.448-4.61-3.07-7.306c-1.265-5.476-2.512-10.958-3.755-16.442c-4.282-18.96-8.282-37.978-11.703-57.102
				c-1.652-9.25-3.123-18.527-4.452-27.828c-1.048-7.318-2.889-14.299-0.493-21.524c0.252-0.577,0.51-1.152,0.786-1.722
				c0.252-0.542,1.065-0.075,0.813,0.467c-3.859,8.457-0.797,18.488,0.487,27.241c1.353,9.255,2.922,18.482,4.592,27.692
				c3.338,18.373,7.292,36.638,11.411,54.858c0.878,3.915,1.78,7.83,2.676,11.739c0.75,3.254,2.448,5.813,3.357,8.817
				c2.436,8.052,3.814,16.505,5.893,24.665c4.428,17.41,10.08,34.473,17.602,50.857c6.525,14.225,14.737,27.52,25.169,39.334
				c11.51,13.039,25.955,23.127,40.857,32.131c18.445,11.14,38.273,19.741,58.757,26.528L639.754,701.25L639.754,701.25z"/>
		</g>
		<g>
			<path fill="#FFFFFF" d="M870.079,701.25h-2.003c4.206-2.479,8.259-5.186,11.856-8.548c4.873-4.548,7.345-10.378,5.927-16.91
				c-1.827-8.525-14.971-14.258-22.247-17.814c-32.392-15.849-68.052-22.767-102.308-33.63
				c-33.628-10.662-65.593-28.979-91.998-51.923c-28.521-24.774-52.613-54.716-76.108-83.94
				c-17.654-21.963-34.366-44.782-54.603-64.557c-3.808-3.722-8.658-6.064-12.64-9.769c-4.757-4.416-9.841-8.463-15.225-12.127
				c-5.348-3.641-11.159-6.571-17.245-8.839c-3.093-1.158-6.309-1.939-9.536-2.605c-6.338-1.311-9.577,2.4-12.319,6.799
				c-0.31,0.508-1.13,0.046-0.813-0.467c2.53-4.052,4.141-7.369,9.272-7.858c6.596-0.638,15.16,3.59,20.971,6.32
				c6.549,3.077,12.506,7.283,18.141,11.727c3.081,2.433,5.986,5.061,8.851,7.728c2.981,2.771,6.654,3.985,9.53,6.794
				c27.191,26.568,49.111,57.901,73.29,87.063c24.08,29.047,49.678,58.561,81.215,80.127c15.148,10.367,31.502,19.763,48.471,26.967
				c17.854,7.579,36.785,12.509,55.566,17.325c8.247,2.115,16.06,5.67,24.273,7.882c3.714,0.998,7.427,1.105,10.977,2.696
				c4.734,2.125,9.607,3.972,14.457,5.852c7.381,2.867,14.715,5.79,21.755,9.38c3.468,1.773,6.771,3.831,9.958,6.041
				c2.225,1.538,6.63,4.035,7.697,6.429C891.342,685.145,881.63,694.161,870.079,701.25z"/>
		</g>
		<g>
			<path fill="#FFFFFF" d="M1441.402,696.68c-4.182,1.487-8.341,3.015-12.488,4.57h-2.613c5.015-1.892,10.04-3.756,15.101-5.551
				L1441.402,696.68L1441.402,696.68z"/>
		</g>
		<g>
			<path fill="#FFFFFF" d="M1441.402,541.908c-30.986,4.274-61.516,11.243-91.132,21.262c-17.713,5.99-35.203,13.091-51.909,21.411
				c-7.638,3.801-14.796,8.475-22.434,12.298c-8.576,4.286-17.573,7.899-26.359,11.746c-32.474,14.212-64.75,28.756-93.475,49.54
				c-21.087,15.262,2.729,31.68,17.572,38.519c3.761,1.738,7.593,3.231,11.47,4.565h-3.034c-1.922-0.718-3.82-1.487-5.693-2.319
				c-10.86-4.81-24.368-10.8-28.714-22.688c-5.272-14.447,12.793-22.596,22.997-29.143c15.406-9.894,31.83-18.191,48.465-25.93
				c16.589-7.717,33.494-14.795,50.188-22.306c16.519-7.431,31.819-16.966,48.501-24.203c34.255-14.857,70.56-24.984,107.451-31.27
				c5.354-0.912,10.72-1.716,16.109-2.445v0.963H1441.402z"/>
		</g>
		<g>
			<path fill="#FFFFFF" d="M1441.402,554.827c-3.304,0.542-6.608,1.083-9.9,1.653c-4.733,0.815-9.454,1.71-14.164,2.667
				c-4.404,0.895-9.851,3.283-14.303,3.299c-9.677,0.046-18.698,4.297-27.859,7.038c-9.56,2.856-19.167,5.505-28.585,8.777
				c-17.982,6.247-35.357,15.176-52.66,23.024c-16.459,7.465-32.697,15.386-48.243,24.562c-7.521,4.439-14.796,9.278-21.848,14.4
				c-7.908,5.751-16.378,12.521-22.411,20.209c-7.427,9.471,0.222,19.405,8.213,25.292c6.537,4.832,14.632,7.226,22.188,10.064
				c5.108,1.92,10.298,3.738,15.546,5.437h-2.847c-1.43-0.473-2.859-0.947-4.289-1.431c-12.945-4.428-27.752-8.497-37.265-18.743
				c-3.316-3.574-6.209-8.85-5.764-13.763c0.597-6.474,7.193-11.786,11.797-15.667c3.046-2.57,5.74-5.596,8.975-8.127
				c2.916-2.291,5.927-4.479,8.95-6.633c7.661-5.472,15.709-10.418,23.899-15.103c15.662-8.969,32.099-16.572,48.571-23.987
				c12.043-5.413,24.086-10.833,36.153-16.207c12.616-5.614,26.136-9.091,39.362-12.994c6.736-1.989,13.296-4.531,20.044-6.423
				c1.898-0.536,3.972-0.57,5.928-0.638c4.616-0.166,9.349-1.807,13.836-2.781c8.833-1.926,17.749-3.436,26.675-4.895
				L1441.402,554.827L1441.402,554.827z"/>
			<path fill="#FFFFFF" d="M1441.402,682.74c-17.316,6.36-34.571,12.879-52.12,18.51h-2.601
				c18.452-5.824,36.574-12.766,54.721-19.468V682.74z"/>
		</g>
		<g>
			<path fill="#FFFFFF" d="M819.751,691.077c-4.921,4.479-10.59,7.369-16.905,9.529c-0.668,0.233-1.359,0.439-2.038,0.644h-3.468
				c0.516-0.137,1.032-0.273,1.546-0.416c6.947-1.881,17.245-5.187,20.806-11.917c5.612-10.635-2.871-15.393-10.801-20.494
				c-7.122-4.588-14.749-6.782-22.797-9.46c-8.002-2.656-15.967-5.392-23.887-8.247c-29.739-10.714-59.26-23.748-84.313-42.999
				c-14.245-10.942-26.553-24.124-39.339-36.627c-13.607-13.295-26.476-26.824-39.087-41.026
				c-12.272-13.832-24.807-27.441-37.986-40.457c-7.205-7.118-14.867-12.942-23.202-18.715c-5.769-3.995-14.069-6.308-20.156-1.271
				c-2.512,2.086-3.215,6.241-4.733,9.096c-0.211,31.715,2.032,63.679,11.352,94.215c4.639,15.181,11.364,29.708,20.114,43.049
				c4.447,6.782,9.584,13.102,15.119,19.057c5.974,6.429,12.764,11.182,19.652,16.568c15.264,11.933,34.231,19.621,52.443,26.267
				c17.285,6.303,35.146,11.049,53.087,15.193c13.108,3.032,26.311,5.654,39.532,8.184h-4.85
				c-34.079-6.593-68.369-14.014-100.463-27.269c-8.172-3.374-16.167-7.073-23.993-11.159c-8.4-4.383-15.194-9.928-22.991-15.159
				c-11.943-8.018-21.627-20.955-29.37-32.763c-16.407-25.007-24.232-54.443-27.935-83.643c-2.215-17.451-2.765-35.071-2.648-52.642
				c0-0.012,0.006-0.018,0.006-0.028c0-0.018,0.012-0.035,0.012-0.051c0.011-0.051,0.023-0.097,0.041-0.138
				c0.006-0.005,0.006-0.01,0.006-0.01c2.197-4.018,3.139-9.928,8.282-11.563c7.621-2.417,13.689,0.307,19.845,4.571
				c7.211,4.998,13.567,9.83,19.845,15.922c7.228,7.016,14.205,14.276,21.075,21.621c13.075,13.974,24.848,29.498,38.555,42.85
				c14.497,14.117,28.948,28.273,43.422,42.412c26.166,25.549,60.82,41.5,94.963,54.174c7.896,2.935,15.875,5.677,23.864,8.366
				c3.983,1.34,7.967,2.656,11.961,3.973c2.835,0.934,7.825,1.584,10.145,3.379c3.761,2.912,7.813,5.363,11.832,7.91
				c3.808,2.423,2.975,1.955,5.025,5.768c0.609,1.129,2.59,3.727,2.121,5.243C822.726,685.281,821.378,689.59,819.751,691.077z"/>
		</g>
		<g>
			<path fill="#FFFFFF" d="M62.579,479.641c11.399,13.398,19.072,29.971,28.245,44.845c9.395,15.222,19.142,30.244,29.704,44.725
				c22.686,31.11,49.59,57.007,82.684,77.432c16.747,10.332,34.097,19.82,51.588,28.888c8.951,4.638,17.889,9.898,27.39,13.375
				c8.564,3.134,17.679,7.528,26.635,9.215c4.434,0.838,8.388,2.428,12.956,2.998c0.428,0.057,0.855,0.091,1.284,0.131h-3.62
				c-3.755-0.638-7.439-1.493-10.871-2.234c-8.383-1.818-16.407-5.733-24.526-8.503c-8.908-3.038-17.021-7.706-25.369-11.946
				c-33.575-17.057-68.141-35.402-96.187-60.54C129.678,588.622,105.884,551.072,83.298,514
				c-5.794-9.505-10.866-19.421-17.327-28.523c-7.363-10.355-17.068-19.12-26.921-27.162c-11.352-9.266-23.94-16.817-37.202-23.069
				v-0.895C24.944,445.317,45.956,460.112,62.579,479.641z"/>
			<path fill="#FFFFFF" d="M347.509,695.784c-2.958,2.821-6.321,4.525-9.906,5.466h-7.182c1.769-0.154,3.539-0.411,5.278-0.757
				c4.773-0.952,8.991-3.311,12.453-6.611c4.99-4.748,5.218-11.671,5.377-17.997c0.522-20.648-1.476-40.958-4.481-61.383
				c-5.705-38.839-10.549-77.346-20.772-115.386c-9.401-35.014-21.9-68.342-45.988-96.352
				c-22.78-26.489-52.583-46.093-83.921-61.662c-8.13-4.035-16.477-7.192-24.859-10.645c-8.834-3.647-17.338-8.184-26.002-12.219
				c-18.433-8.583-36.932-17.04-55.354-25.646c-28.983-13.53-59.008-22.59-90.305-27.343v-0.97
				c28.357,4.23,55.863,11.946,82.257,23.629c18.457,8.172,36.645,16.994,54.979,25.417c8.898,4.092,17.772,8.24,26.589,12.492
				c8.768,4.217,17.994,7.283,26.809,11.409c31.069,14.585,60.28,33.185,84.004,57.788c23.231,24.09,36.926,52.675,46.901,83.985
				c11.651,36.582,18.188,74.024,23.279,111.928c2.67,19.923,6.08,39.761,7.456,59.832c0.622,9.05,0.534,18.078,0.305,27.133
				C354.251,684.917,352.763,690.787,347.509,695.784z"/>
		</g>
		<g>
			<path fill="#FFFFFF" d="M1441.402,573.183c-32.767,5.329-66.039,12.207-96.182,25.44c-7.861,3.454-16.131,5.836-23.852,9.66
				c-8.165,4.041-15.932,9.311-23.641,14.133c-7.474,4.667-14.737,9.655-21.638,15.107c-6.618,5.232-19.787,14.635-20.419,23.629
				c-1.242,17.905,23.336,25.388,37.242,29.246c19.517,5.409,41.097,5.272,60.884,1.368c30.552-6.018,58.763-19.502,87.605-30.774
				v0.951c-28.808,11.175-56.889,24.347-87.348,30.718c-17.151,3.584-35.239,3.624-52.484,0.627
				c-13.778-2.4-30.261-7.637-40.934-16.971c-4.135-3.625-5.401-8.138-5.822-13.318c-0.609-7.409,5.049-11.849,9.981-16.755
				c11.586-11.523,25.586-20.498,39.538-28.996c31.478-19.154,67.444-30.511,103.48-38.513c11.129-2.467,22.341-4.553,33.587-6.433
				v0.881H1441.402z"/>
		</g>
		<g>
			<path fill="#FFFFFF" d="M1441.402,598.977c-19.541,2.125-39,4.958-57.99,10.093c-12.606,3.407-24.836,8.074-36.41,14.054
				c-5.272,2.729-10.322,5.864-15.219,9.203c-6.337,4.331-15.217,9.951-17.818,17.399c-2.93,8.452,4.85,14.527,11.832,17.046
				c5.494,1.983,11.48,2.04,17.257,1.732c14.093-0.763,27.905-4.262,41.166-8.799c19.822-6.781,38.403-16.452,57.182-25.593v0.991
				c-21.884,10.584-43.499,21.775-66.963,28.694c-12.992,3.825-27.742,6.907-41.355,5.494c-7.756-0.809-19.799-5.1-20.396-14.293
				c-0.785-12.235,12.817-19.662,21.92-25.691c12.031-7.961,25.421-13.785,39.14-18.31c21.825-7.204,44.751-10.543,67.654-12.97
				L1441.402,598.977L1441.402,598.977z"/>
		</g>
		<g>
			<path fill="#FFFFFF" d="M329.431,611.64c-0.106,14.977,0.733,29.594-8.815,42.24c-8.231,10.896-24.157,11.956-36.728,10.064
				c-17.326-2.604-34.026-11.193-49.42-18.96c-15.569-7.858-30.348-17.108-43.826-28.067c-2.607-2.12-5.986-3.214-8.447-5.328
				c-3.163-2.718-6.291-5.466-9.383-8.258c-6.607-5.956-12.945-12.185-19.061-18.619c-11.159-11.745-21.192-24.488-29.879-38.085
				c-9.133-14.288-15.704-29.903-24.508-44.384c-9.237-15.193-19.066-31.098-30.952-44.446
				c-10.977-12.326-25.088-22.716-39.527-30.877c-8.347-4.719-17.59-7.346-26.453-10.891c-0.199-0.079-0.392-0.16-0.585-0.239
				v-1.095c6.373,2.463,12.811,4.736,19.108,7.387c15.101,6.348,29.205,16.936,41.108,27.93
				c12.687,11.717,21.784,26.563,31.157,40.804c9.911,15.057,17.456,31.048,26.26,46.674c8.534,15.16,19.148,29.122,30.816,42.105
				c5.448,6.063,11.218,11.842,17.127,17.472c2.994,2.85,6.057,5.631,9.145,8.384c3.538,3.163,7.299,5.351,11.241,7.876
				c7.309,4.679,13.736,10.97,21.022,15.821c7.762,5.162,15.921,9.739,24.198,14.054c17.157,8.936,35.824,18.196,55.365,20.413
				c9.537,1.089,20.684-0.633,28.182-6.81c6.302-5.197,9.395-13.609,11.047-21.245c1.967-9.101,0.854-19.462,0.89-28.751
				c0.041-10.497-0.341-20.983-1.599-31.412c-1.072-8.833-0.849-17.632-1.997-26.46c-1.353-10.44-2.976-20.846-4.903-31.201
				c-3.428-18.436-7.967-36.918-14.633-54.51c-13.372-35.294-38.32-63.401-69.013-85.621
				c-14.825-10.731-31.115-19.998-48.459-26.232c-17.486-6.292-35.585-11.147-52.536-18.716
				c-25.662-11.454-49.403-26.362-75.627-36.712c-18.697-7.374-38.075-13.21-57.896-16.675v-0.957
				c27.63,4.764,54.522,14.065,79.65,26.01c17.005,8.093,33.272,17.586,50.287,25.668c18.059,8.572,37.571,13.695,56.374,20.494
				c31.613,11.421,61.609,32.375,83.81,57.074c11.334,12.606,21.509,26.381,28.638,41.682c7.538,16.179,12.518,33.436,16.623,50.709
				c4.194,17.65,6.942,35.601,9.22,53.576c0.533,4.189,0.287,8.469,0.287,12.686c0,4.593,1.184,9.443,1.67,14.02
				C329.514,590.651,329.508,601.177,329.431,611.64z"/>
		</g>
		<g>
			<path fill="#FFFFFF" d="M549.003,570.761c-2.73-10.582-2.865-23.155,6.759-30.432c3.544-2.679,12.185,0.348,15.148,2.433
				c7.644,5.379,16.149,9.882,22.751,16.487c24.976,25.007,51.722,48.789,71.357,78.27c1.733,2.61,4.715,6.034,5.558,9.044
				c0.381,1.339-1.552,4.069-2.144,5.032c-3.403,5.5-8.264,4.565-14.228,4.582c-13.754,0.028-27.408-3.141-40.089-8.19
				c-25.041-9.973-46.421-29.052-57.89-53.04C552.563,587.3,550.251,579.099,549.003,570.761c-0.089-0.581,0.819-0.832,0.907-0.245
				c7.668,51.274,60.995,88.197,112.764,84.418c5.689-0.416,7.135-7.91,4.897-11.626c-1.803-3.003-3.749-5.921-5.728-8.815
				c-4.763-6.988-10.07-13.615-15.552-20.067c-10.314-12.127-21.643-23.399-33.007-34.575c-5.729-5.624-11.488-11.221-17.198-16.869
				c-6.643-6.565-13.971-11.535-21.732-16.738c-3.848-2.582-7.374-4.393-11.95-5.431c-7.421-1.681-11.111,4.507-12.986,10.019
				c-2.12,6.247-1.107,13.461,0.492,19.684C550.062,571.097,549.149,571.342,549.003,570.761L549.003,570.761z"/>
		</g>
		<g>
			<path fill="#FFFFFF" d="M546.97,255.229c8.02-10.463,17.848-19.48,28.526-27.322c23.22-17.039,51.055-27.411,78.955-34.489
				c32.913-8.344,67.104-12.333,101.031-13.336c20.197-0.605,40.394-0.627,60.543-2.257c20.396-1.641,40.453-6.314,59.549-13.506
				c36.446-13.745,58.728-46.697,84.49-73.596c25.352-26.488,52.167-51.655,80.635-74.918c6.185-5.061,12.476-9.997,18.826-14.84
				h1.57c-25.317,19.32-49.356,40.166-72.26,62.198c-13.331,12.822-26.218,26.067-38.836,39.561
				c-12.417,13.279-23.84,27.697-37.324,39.973c-26.429,24.083-63.907,33.418-99.087,36.256c-20.126,1.619-40.358,1.528-60.532,2.12
				c-20.085,0.605-39.807,2.69-59.665,5.631c-58.553,8.639-122.657,29.258-154.417,81.927
				c-10.655,17.667-12.324,37.328-3.304,56.123c7.979,16.624,18.844,31.737,30.336,46.19c10.966,13.797,23.326,26.733,33.125,41.358
				c10.473,15.637,19.622,31.828,31.003,46.896c12.043,15.941,24.403,31.652,38.069,46.316c6.039,6.48,12.149,12.891,18.44,19.142
				c3.18,3.163,6.449,6.241,9.753,9.283c3.098,2.856,6.947,4.212,10.057,6.958c26.98,23.827,60.649,38.491,94.869,49.393
				c16.705,5.328,33.703,9.75,50.679,14.167c3.713,0.964,7.451,1.852,11.141,2.918c2.987,0.866,5.576,2.525,8.81,3.266
				c9.723,2.218,19.399,4.616,28.994,7.312c8.729,2.45,17.245,4.827,26.126,6.719c3.011,0.643,5.201,0.934,7.731,2.57
				c4.147,2.679,11.411,3.031,16.214,4.148c20.103,4.697,40.252,9.279,60.848,11.313c39.632,3.926,78.831-6.434,116.179-18.339
				c38.941-12.413,75.984-29.697,113.731-45.016c8.833-3.585,17.678-7.124,26.5-10.732c9.735-3.978,18.943-9.044,28.608-13.192
				c3.363-1.437,7.146-1.613,10.59-3.135c3.608-1.596,7.252-3.117,10.907-4.622c9.383-3.863,18.921-7.346,28.55-10.577
				c30.565-10.253,62.324-17.012,94.471-20.118v0.941c-33.634,3.288-66.695,10.663-98.653,21.57
				c-9.572,3.271-19.014,6.93-28.339,10.823c-3.574,1.499-7.158,3.556-10.86,4.73c-4.885,1.56-9.618,2.644-14.339,4.878
				c-16.94,8.024-34.174,15.028-51.559,22.101c-37.722,15.358-74.8,32.689-113.894,44.662
				c-36.422,11.147-73.418,20.363-111.892,16.955c-19.049-1.692-37.781-5.944-56.349-10.242c-7.041-1.629-16.226-2.148-22.33-6.081
				c-3.292-2.131-8.961-2.302-12.793-3.128c-5.236-1.134-10.227-2.542-15.347-4.08c-8.751-2.621-17.607-4.851-26.488-6.97
				c-4.123-0.986-8.341-1.744-12.406-2.912c-0.645-0.188-1.769-1.038-2.308-1.391c-2.215-1.43-5.471-1.76-7.99-2.416
				c-17.011-4.417-33.997-8.845-50.785-13.985c-31.901-9.763-62.864-22.767-89.457-42.85c-3.38-2.554-6.631-5.266-9.829-8.024
				c-2.671-2.309-5.752-3.084-8.365-5.42c-7.205-6.451-14.028-13.307-20.724-20.259c-12.64-13.136-25.047-26.733-35.983-41.267
				c-11.598-15.398-22.828-30.541-32.849-46.965c-10.081-16.515-22.077-31.167-34.42-46.081
				c-10.883-13.154-21.397-26.597-30.289-41.135c-8.75-14.304-15.352-29.065-14.374-46.048
				C529.613,279.871,538.301,266.547,546.97,255.229z"/>
		</g>
		<g>
			<path fill="#FFFFFF" d="M1377.858,0.965c19.823,23.902,38.027,50.082,63.543,67.919v1.152
				c-26.078-18.043-44.529-44.782-64.761-69.071C1376.64,0.965,1377.858,0.965,1377.858,0.965z"/>
		</g>
		<g>
			<path fill="#FFFFFF" d="M307.806,610.152c-2.865,11.677-15.247,24.015-27.776,24.038c-7.077,0.012-14.686,1.026-21.544-0.895
				c-8.178-2.291-16.127-5.3-23.887-8.696c-30.073-13.176-58.441-34.439-78.774-59.771c-20.285-25.274-33.399-55.16-49.308-83.044
				c-13.894-24.351-30.167-46.737-54.276-62.324c-11.124-7.186-23.489-12.35-36.271-15.94c-1.569-0.445-2.266-1.846-3.784-2.467
				c-3.251-1.322-6.888-2.115-10.338-3.032v-0.934c0.38,0.107,0.762,0.216,1.142,0.324c7.369,2.108,13.508,5.134,20.677,7.471
				c13.778,4.497,26.94,11.432,38.315,20.26c26.061,20.236,41.747,48.89,56.912,77.226c15.804,29.509,31.543,59.251,56.742,82.309
				c12.928,11.826,27.729,22.135,43.007,30.843c7.691,4.388,15.739,8.155,23.987,11.438c8.916,3.55,18.135,7.107,27.87,6.229
				c3.878-0.348,7.68,0.079,11.557,0.073c6.086-0.012,11.434-4.28,15.47-8.291c7.356-7.318,10.156-17.086,11.82-26.889
				c3.381-19.872,2.115-40.257-0.047-60.174c-1.997-18.436-4.657-36.809-9.788-54.693c-2.583-8.993-5.998-17.735-10.058-26.186
				c-1.945-4.052-4.159-7.973-6.467-11.837c0.071,0.114-0.591-0.957-0.614-1.35c-0.164-2.843-1.272-4.576-2.794-6.919
				c-18.018-27.657-43.768-49.706-74.316-63.258c-18.316-8.127-38.179-11.541-57.328-17.217c-8.904-2.639-16.963-6.771-25.667-9.853
				c-8.833-3.135-16.413-7.215-24.444-11.991c-18.504-10.987-37.466-21.234-57.486-29.361c-12.266-4.98-25.305-8.297-38.49-10.77
				v-0.707c9.489,1.858,18.908,4.046,28.245,6.611c16.84,4.639,33.306,13.894,48.495,22.158c8.018,4.365,15.885,8.993,23.722,13.666
				c8.523,5.083,17.368,7.938,26.435,11.824c18.856,8.081,38.478,12.082,58.12,17.9c30.424,9.022,57.363,26.922,78.127,50.305
				c4.769,5.369,9.103,11.084,13.192,16.954c4.387,6.298,6.478,12.703,10.075,19.411c8.223,15.348,13.256,32.126,16.712,49.046
				C312.111,536.613,316.411,575.144,307.806,610.152z"/>
		</g>
		<g>
			<path fill="#FFFFFF" d="M747.363,193.783c32.872-1.208,66.05,0.354,98.805-2.94c16.542-1.664,33.002-4.845,48.302-11.364
				c15.979-6.793,27.812-17.792,38.578-30.899c12.301-15.012,23.454-30.888,35.356-46.195
				c11.082-14.259,23.231-27.059,36.235-39.631c6.209-6.006,12.161-12.275,18.44-18.225c7.276-6.884,15.312-12.948,23.125-19.227
				c10.181-8.196,20.373-16.368,30.74-24.335h1.512c-11.281,8.639-22.329,17.553-33.4,26.443
				c-14.679,11.797-27.811,24.46-41.295,37.499c-14.058,13.587-26.746,27.72-38.614,43.21
				c-10.966,14.303-21.451,28.939-32.896,42.89c-9.981,12.172-21.158,21.77-35.637,28.528c-13.425,6.269-28.221,9.369-42.877,11.353
				c-31.795,4.285-64.34,2.746-96.357,3.521c-67.585,1.63-140.974,12.094-187.94,64.809c-5.752,6.462-10.45,13.734-13.414,21.815
				c-3.397,9.266-2.548,19.023-0.715,28.506c3.515,18.213,12.957,34.9,22.393,50.743c9.641,16.191,21.292,31.572,32.51,46.749
				c11.182,15.137,23.94,29.093,33.26,45.403c4.586,8.024,11.152,14.994,16.629,22.471c6.408,8.754,13.185,16.499,20.888,24.198
				c13.876,13.876,28.063,27.503,44.218,38.872c15.875,11.177,32.323,20.482,49.93,28.826c18.077,8.57,37.126,15.016,56.198,21.143
				c36.621,11.762,74.133,20.738,111.914,28.084c40.64,7.905,82.873,17.4,124.11,7.791c34.595-8.064,68.662-15.319,101.968-27.799
				c35.321-13.245,69.495-29.202,104.195-43.888c30.564-12.937,61.738-28.101,94.845-33.441c2.987-0.479,5.986-0.798,8.997-1.095
				c2.542-0.244,6.232,0.057,8.471-1.224c0.632-0.359,1.593-1.18,2.319-1.385c7.662-2.211,16.074-2.809,23.993-3.715
				c9.161-1.055,18.287-2.115,27.32-3.933c0.644-0.131,1.288-0.25,1.933-0.37v0.895c-3.714,0.678-7.416,1.475-11.082,2.057
				c-9.724,1.556-19.565,2.32-29.324,3.665c-4.194,0.581-9.841,0.735-13.543,2.855c-2.319,1.322-2.859,1.642-5.6,1.761
				c-10.332,0.467-20.548,2.451-30.529,5.037c-18.439,4.788-35.965,12.498-53.455,19.798c-18.392,7.682-36.763,15.36-55.027,23.326
				c-35.766,15.598-71.696,31.891-109.324,42.787c-18.604,5.385-37.641,9.226-56.549,13.438c-19.295,4.29-37.945,6.844-57.803,6.024
				c-19.47-0.81-38.566-4.845-57.673-8.253c-19.154-3.413-38.226-7.266-57.181-11.597c-37.43-8.548-74.309-19.331-110.204-32.769
				c-34.666-12.972-66.87-32.678-94.125-57.24c-13.531-12.191-27.355-25.013-38.01-39.687c-5.441-7.494-12.318-14.481-17.074-22.334
				c-5.5-9.09-10.877-17.576-17.562-25.913c-22.821-28.472-45.805-58.58-62.137-91.132c-7.181-14.305-12.722-30.204-12.482-46.31
				c0.205-13.826,8.359-26.17,17.327-36.234C614.034,207.757,683.913,196.108,747.363,193.783z"/>
		</g>
		<g>
			<path fill="#FFFFFF" d="M1361.363,0.965c12.957,14.771,25.187,30.147,38.309,44.782c8.353,9.323,17.186,18.214,26.628,26.488
				c4.604,4.035,9.759,7.318,15.101,10.339v0.945c-4.206-2.382-8.329-4.889-12.23-7.761c-9.982-7.352-18.663-16.869-27.016-25.885
				c-14.62-15.797-27.87-32.745-42.057-48.908C1360.098,0.965,1361.363,0.965,1361.363,0.965z"/>
		</g>
		<g>
			<path fill="#FFFFFF" d="M607.76,253.633c22.083-20.22,50.978-31.515,80.225-37.487c14.679-2.986,29.651-4.525,44.606-5.312
				c18.802-0.991,37.698-1.88,56.548-1.811c18.616,0.068,37.149,2.017,55.787,2.097c20.057,0.079,40.172-1.289,59.888-5.005
				c16.975-3.191,29.616-14.623,38.953-28.209c4.966-7.239,10.532-14.122,14.737-21.816c4.276-7.819,8.587-15.627,12.98-23.377
				c8.505-15,17.257-29.669,28.081-43.21c10.45-13.073,21.932-25.245,34.162-36.735c12.886-12.116,26.581-23.446,39.984-34.992
				c7.311-6.303,15.241-11.603,23.243-16.812h0.785c-1.51,1.003-2.999,2.028-4.475,3.066c-8.4,5.893-16.507,12.253-24.18,19.023
				c-13.613,12.013-27.672,23.479-40.711,36.108c-13.132,12.743-25.153,26.535-35.918,41.249
				c-11.025,15.079-19.787,31.914-28.773,48.202c-8.036,14.566-17.151,29.782-28.796,41.933
				c-10.497,10.964-23.652,15.523-38.437,17.917c-19.435,3.157-39.21,3.784-58.868,3.511c-20.161-0.273-40.159-2.291-60.345-1.949
				c-64.62,1.117-143.07,4.73-184.484,61.423c-5.013,6.873-8.528,14.613-10.068,22.921c-1.881,10.132,1.264,20.311,4.275,29.919
				c5.196,16.631,13.279,32.25,22.259,47.205c8.675,14.459,18.405,28.295,27.77,42.331c10.344,15.512,20.051,31.242,31.707,45.883
				c23.02,28.91,50.2,55.103,81.268,75.665c7.299,4.827,14.843,9.283,22.505,13.518c3.842,2.12,7.744,4.126,11.657,6.103
				c4.767,2.4,11.445,6.862,16.857,7.148c2.859,0.153,5.226,1.469,7.838,2.576c5.119,2.159,10.332,4.148,15.546,6.081
				c9.699,3.59,19.564,6.753,29.463,9.768c38.66,11.774,78,22.675,118.23,27.781c40.288,5.118,80.166,3.135,119.775-5.533
				c32.029-7.01,63.121-17.586,94.213-27.72c7.498-2.445,14.409-6.241,21.345-9.871c6.36-3.323,12.511-5.47,19.318-7.682
				c16.87-5.494,32.721-14.042,48.619-21.769c13.097-6.371,26.616-11.074,40.37-16.072c15.662-5.693,31.876-9.904,48.219-13.279
				c25.504-5.265,51.488-8.03,77.484-9.922v0.947c-32.732,2.428-65.358,6.32-97.177,14.463c-8.833,2.263-17.537,4.942-26.124,7.923
				c-4.323,1.493-8.587,3.134-12.829,4.826c-3.408,1.362-8.528,4.867-12.359,5.067c-5.295,0.279-10.322,3.533-14.972,5.808
				c-4.276,2.08-8.54,4.148-12.816,6.206c-9.466,4.571-18.979,9.062-28.538,13.455c-7.288,3.346-15.511,4.44-22.81,7.86
				c-7.849,3.687-15.276,8.137-23.336,11.438c-17.866,7.311-37.23,12.383-55.729,17.946c-36.692,11.039-74.321,19.399-112.853,19.82
				c-38.799,0.421-78.245-5.596-115.511-15.975c-19.13-5.328-38.344-10.371-57.334-16.219c-9.126-2.815-18.182-5.887-27.144-9.204
				c-3.795-1.408-7.567-2.878-11.304-4.428c-4.206-1.738-8.95-2.222-12.981-4.045c-32.896-14.852-63.672-34.308-89.696-59.047
				c-13.139-12.492-25.598-25.657-37.12-39.596c-11.147-13.496-20.577-27.971-30.072-42.582
				c-18.012-27.725-38.092-54.328-50.515-85.086c-5.823-14.418-11.212-30.181-7.627-45.717
				C585.917,275.767,596.905,263.56,607.76,253.633z"/>
		</g>
		<g>
			<path fill="#FFFFFF" d="M1343.064,0.965c16.401,16.048,29.499,35.003,43.815,52.897c15.3,19.138,32.919,34.832,54.522,45.444
				v1.048c-19.939-9.665-36.692-23.616-51.16-40.907c-16.296-19.467-30.319-40.781-48.548-58.482
				C1341.693,0.965,1343.064,0.965,1343.064,0.965z"/>
		</g>
		<g>
			<path fill="#FFFFFF" d="M665.597,241.004c62.371-29.27,133.453-20.356,199.491-11.341c15.511,2.121,31.49,5.687,47.2,4.491
				c16.576-1.265,30.084-9.232,40.463-21.599c11.785-14.042,16.588-30.729,23.383-47.29c5.929-14.429,12.677-28.517,20.185-42.217
				c15.535-28.37,35.029-54.585,58.541-77.129c12.195-11.695,26.301-20.893,39.762-31.07c6.361-4.811,12.758-9.575,19.435-13.883
				h1.711c-9.665,6.109-18.697,13.233-27.824,20.083c-7.591,5.699-15.534,10.873-22.833,16.938
				c-7.205,5.984-13.859,12.617-20.325,19.354c-25.329,26.374-44.799,58.003-60.122,90.784
				c-13.343,28.552-19.916,66.187-51.512,81.528c-12.828,6.224-27.25,6.371-41.132,4.582c-17.385-2.256-34.747-4.786-52.144-6.987
				c-34.453-4.355-69.306-7.306-103.983-3.91c-35.901,3.511-74.574,15.091-102.614,38.058
				c-13.261,10.873-22.487,26.192-23.981,43.152c-1.699,19.286,6.133,38.77,14.046,55.998c8.013,17.438,17.789,33.555,27.63,50.031
				c2.338,3.916,4.118,8.435,7.861,11.262c2.566,1.943,3.854,4.16,5.6,6.844c5.073,7.785,10.503,15.335,16.167,22.716
				c11.164,14.55,23.647,28.09,36.938,40.799c6.811,6.52,13.771,12.35,21.702,17.535c8.13,5.306,14.526,12.349,22.703,17.639
				c7.873,5.089,15.839,10.041,24.029,14.639c9.583,5.381,20.559,9.136,30.751,13.262c18.733,7.585,37.734,14.526,56.877,21.052
				c37.594,12.816,78.961,19.314,118.581,21.884c37.957,2.456,76.066-1.989,112.981-10.606
				c59.571-13.899,115.722-39.072,170.384-65.503c27.999-13.541,59.22-20.818,89.844-26.261c25.117-4.462,50.539-7.038,76.007-8.617
				v0.947c-34.044,2.143-67.936,6.154-101.207,13.688c-19.447,4.4-40.241,9.392-58.166,18.128
				c-16.717,8.144-33.516,16.117-50.48,23.748c-66.202,29.789-136.422,54.004-209.97,55.947
				c-78.386,2.068-154.346-21.474-225.282-51.924c-8.727-3.744-16.753-8.258-24.824-13.233c-7.943-4.907-15.991-9.562-22.645-16.065
				c-6.162-6.013-13.835-10.076-20.683-15.273c-7.387-5.608-13.971-12.806-20.455-19.365c-11.968-12.099-22.938-25.11-33.014-38.747
				c-2.554-3.454-5.013-6.97-7.439-10.509c-2.466-3.608-4.574-8.155-7.831-11.136c-2.495-2.279-3.966-3.226-5.659-6.229
				c-2.676-4.747-5.518-9.404-8.365-14.054c-9.577-15.667-18.375-31.487-25.638-48.332c-6.87-15.923-12.318-32.78-11.393-50.265
				C610.033,272.861,639.144,253.417,665.597,241.004z"/>
		</g>
		<g>
			<path fill="#FFFFFF" d="M1325.468,0.965c19.635,17.586,34.993,39.266,51.699,59.531c10.696,12.97,22.247,25.349,35.825,35.504
				c8.775,6.553,18.382,10.919,28.41,14.52v0.992c-8.845-3.135-17.373-6.873-25.387-12.241
				c-13.414-8.982-24.661-20.79-35.087-32.861c-18.897-21.896-35.17-46.195-56.877-65.446L1325.468,0.965L1325.468,0.965z"/>
		</g>
		<g>
			<path fill="#FFFFFF" d="M106.499,396.83c3.046-2.479,5.594-5.442,8.54-8.024c2.233-1.949,5.29-2.155,8.113-2.736
				c8.739-1.807,17.801-2,26.699-1.864c15.915,0.239,32.047,0.919,47.323,5.535c23.893,7.232,44.301,22.493,59.496,41.681
				c15.434,19.491,25.088,43.016,29.973,67.06c2.495,12.263,3.527,24.79,3.381,37.282c-0.071,6.184-0.557,12.355-1.307,18.498
				c-0.674,5.58-0.984,12.316-3.802,17.268c-3.515,6.189-5.506,13.302-11.112,18.021c-4.657,3.915-10.298,6.565-16.331,6.919
				c-7.433,0.439-15.13,0.74-22.119-1.824c-5.927-2.171-11.65-4.833-17.221-7.767c-21.983-11.598-39.878-29.259-54.294-48.983
				c-14.731-20.156-25.72-42.748-35.28-65.606c-4.85-11.592-9.261-23.36-13.549-35.162c-2.168-5.955-4.287-11.922-6.408-17.895
				c-2.648-7.431-2.747-14.196-2.243-22.078c0.041-0.593,0.984-0.599,0.949,0c-0.574,8.959,0.246,16.333,3.251,24.78
				c2.32,6.508,4.645,13.01,7.024,19.496c4.891,13.358,10.052,26.625,15.762,39.67c11.177,25.543,24.836,50.35,43.458,71.487
				c9.284,10.543,19.974,19.85,31.795,27.589c5.594,3.658,11.509,6.827,17.578,9.659c3.608,1.686,7.327,3.151,11.071,4.525
				c5.401,1.977,12.101,1.299,17.8,1.259c20.601-0.148,29.763-21.331,32.329-38.434c1.985-13.249,2.156-26.745,1.008-40.075
				c-3.251-37.778-19.154-75.539-47.828-101.611c-14.48-13.164-32.287-22.317-51.435-26.996
				c-12.547-3.066-26.376-3.049-39.269-3.374c-7.398-0.188-14.79,0.138-22.124,1.106c-4.669,0.615-9.8,1.287-13.467,4.496
				c-2.471,2.155-4.533,4.667-7.093,6.747C106.704,397.862,106.031,397.212,106.499,396.83L106.499,396.83z"/>
		</g>
		<g>
			<path fill="#FFFFFF" d="M674.723,261.554c5.992-3.875,11.551-5.437,17.919-8.422c7.961-3.716,16.371-6.452,24.901-8.605
				c34.495-8.708,71.409-4.537,106.016,1.356c19.118,3.26,37.887,8.275,56.537,13.494c9.044,2.542,18.064,5.141,27.12,7.672
				c10.379,2.895,20.033,6.85,31.01,4.627c16.353-3.316,29.276-14.623,38.074-28.004c9.337-14.178,12.769-30.58,16.038-46.856
				c6.49-32.427,16.038-62.894,33.166-91.513c26.604-44.463,66.389-81.415,113.566-104.337h2.12
				c-50.679,24.175-92.374,64.489-119.553,112.885c-3.655,6.508-6.971,13.188-10.076,19.969c-1.394,3.078-1.3,6.611-2.764,9.562
				c-2.566,5.153-4.722,10.441-6.573,15.878c-5.81,17.04-8.083,35.048-12.113,52.521c-6.116,26.466-21.463,52.646-49.836,60.363
				c-6.772,1.835-13.555,1.504-20.268-0.354c-9.653-2.679-19.295-5.596-28.948-8.343c-18.604-5.289-37.219-10.509-56.174-14.464
				c-37.218-7.773-77.472-12.389-114.984-4.058c-9.231,2.04-18.182,5.163-26.78,9.005c-2.032,0.913-5.172,3.42-7.392,3.545
				c-4.627,0.263-8.435,3.522-12.189,5.95c-15.17,9.791-29.358,22.431-33.646,40.326c-4.493,18.749,1.002,38.781,7.796,56.311
				c7.041,18.168,16.729,35.253,26.986,51.855c9.18,14.857,20.888,28.956,32.006,42.468c10.485,12.737,21.93,24.677,34.554,35.413
				c6.373,5.426,13.636,9.859,19.599,15.69c7.169,6.998,15.92,12.206,24.414,17.547c14.703,9.238,30.015,17.541,45.818,24.847
				c32.838,15.176,67.925,24.494,103.55,30.94c20.114,3.636,39.597,7.87,60.157,8.24c20.514,0.37,41.367-1.408,61.599-4.604
				c34.302-5.42,68.322-15.7,100.995-27.075c34.946-12.162,67.936-28.729,101.57-43.928c14.96-6.759,30.015-13.022,45.642-18.179
				c7.837-2.588,16.074-4.451,24.169-6.035c3.479-0.678,7.087-0.764,10.613-0.838c4.616-0.103,8.213-1.083,12.571-2.285
				c2.846-0.781,6.384-0.518,9.314-0.729c4.932-0.365,9.851-0.757,14.784-1.151c9.02-0.724,18.041-1.494,27.073-2.246
				c12.758-1.06,25.516-2.075,38.297-2.935v0.923c-14.421,0.975-28.819,2.143-43.217,3.351c-9.853,0.82-19.693,1.642-29.546,2.417
				c-4.921,0.387-9.853,0.746-14.773,1.094c-4.393,0.308-7.825,2.462-12.324,2.467c-19.283,0.018-37.923,7.055-55.706,13.712
				c-19.669,7.363-38.625,16.761-57.673,25.537c-17.631,8.127-35.227,17.246-53.526,23.805
				c-18.252,6.542-36.633,12.498-55.249,17.98c-37.769,11.114-75.68,18.647-115.206,19.61c-19.4,0.473-37.688-2.109-56.607-5.842
				c-18.218-3.596-36.482-6.771-54.499-11.335c-32.967-8.354-64.375-21.491-93.768-38.234c-7.404-4.217-14.644-8.714-21.79-13.34
				c-3.667-2.378-7.287-4.827-10.895-7.295c-4.135-2.833-7.03-6.993-11.141-9.882c-13.333-9.404-25.417-20.379-36.523-32.205
				c-23.377-24.887-44.107-53.324-60.04-83.262c-8.235-15.479-15.457-31.879-19.212-48.988c-3.216-14.635-4.118-32.529,3.59-46.058
				C650.567,278.754,662.469,269.465,674.723,261.554z"/>
		</g>
		<g>
			<path fill="#FFFFFF" d="M1302.272,0.965c25.973,18.579,43.51,46.207,63.919,70.633c20.396,24.403,44.458,46.16,75.211,54.653
				v0.935c-28.761-7.865-51.746-27.184-71.427-49.718c-22.668-25.953-40.898-56.647-69.306-76.503
				C1300.669,0.965,1302.272,0.965,1302.272,0.965z"/>
		</g>
		<g>
			<path fill="#FFFFFF" d="M1329.452,42.875c16.881,20.893,30.224,44.543,49.73,63.35c16.893,16.276,39.163,25.531,62.219,30.227
				v0.878c-11.06-2.279-21.884-5.585-32.24-10.03c-14.679-6.303-26.863-15.968-37.582-27.503
				c-23.676-25.474-39.035-57.161-65.581-80.286c-9.032-7.865-18.663-13.974-28.69-18.545h1.969
				C1299.356,10.403,1315.652,25.79,1329.452,42.875z"/>
			<path fill="#FFFFFF" d="M762.206,254.807c37.419-2.256,73.9,7.876,107.111,24.153c6.971,3.408,14.14,5.413,21.193,8.708
				c8.061,3.749,16.472,6.747,25.094,8.993c17.081,4.456,35.322,4.536,51.628-2.611c16.261-7.135,27.906-23.24,34.642-38.889
				c6.479-15.046,8.716-31.584,10.474-47.688c0.843-7.694,1.522-15.411,2.366-23.104c0.352-3.249,0.739-6.497,1.196-9.734
				c0.797-5.665,2.987-10.999,3.349-16.71c0.481-7.511,2.613-14.236,5.764-21.074c1.98-4.309,4.545-8.23,6.396-12.618
				c1.558-3.727,2.929-7.477,4.734-11.09c1.932-3.875,4.92-7.18,7.169-10.885c2.203-3.624,4.088-7.443,6.268-11.09
				c0.315-0.524,2.132-2.108,2.589-2.553c5.049-4.936,0.925-1.915,2.964-4.958c2.249-3.34,5.084-6.167,7.051-9.734
				c1.676-3.032,5.179-5.871,7.522-8.447c2.94-3.213,5.974-6.36,9.056-9.448c6.561-6.622,13.519-12.834,20.748-18.727
				c18.557-15.113,39.819-27.708,62.511-36.337h4.066c-24.766,8.878-48.125,22.499-67.584,38.353
				c-14,11.41-28.034,24.54-38.18,39.381c-1.828,2.689-3.62,5.482-5.401,8.126c-2.027,3.021-4.827,5.254-6.678,8.504
				c-4.826,8.525-10.824,16.367-14.455,25.451c-3.094,7.705-7.428,14.726-10.497,22.42c-1.887,4.73-2.917,9.665-3.094,14.726
				c-0.163,4.582-2.144,8.652-2.835,13.12c-2.483,15.922-3.221,32.039-5.47,47.985c-4.054,28.712-14.445,60.534-42.432,74.986
				c-26.758,13.803-59.256,4.422-84.49-7.979c-3.363-1.653-6.701-1.39-10.005-3.145c-4.03-2.143-8.142-4.149-12.289-6.087
				c-9.383-4.4-19.083-8.103-28.948-11.318c-19.412-6.326-38.801-9.438-59.244-9.939c-36.41-0.878-80.195,8.765-102.18,39.664
				c-21.86,30.728-1.646,71.396,13.859,100.387c14.937,27.937,34.812,53.166,57.685,75.323
				c11.844,11.478,24.626,22.004,37.992,31.754c6.268,4.571,12.711,8.908,19.248,13.102c7.638,4.889,14.585,10.041,22.716,14.133
				c8.341,4.189,16.635,8.475,24.976,12.669c8.469,4.257,18.123,7.02,27.12,10.332c17.409,6.417,35.627,10.554,53.656,14.915
				c77.647,18.772,161.023-0.514,233.072-30.244c23.395-9.649,46.252-20.488,69.236-31.02c11.422-5.231,22.903-10.371,34.477-15.29
				c11.293-4.799,22.763-10.07,34.642-13.29c10.954-2.963,22.633-3.59,33.88-4.701c14.117-1.397,28.28-2.155,42.444-2.759
				c21.357-0.906,42.737-1.356,64.082-2.53v0.935c-35.497,1.967-71.111,1.937-106.526,5.278c-9.806,0.923-19.693,1.801-29.357,3.687
				c-9.665,1.892-18.803,6.035-27.859,9.688c-18.943,7.642-37.488,16.167-56.011,24.699
				c-34.793,16.025-69.587,32.045-106.291,43.494c-18.358,5.722-37.067,10.276-55.963,13.901
				c-18.417,3.527-36.716,5.049-55.448,5.898c-38.098,1.722-75.247-5.807-111.61-16.339c-8.459-2.45-16.788-5.328-24.941-8.611
				c-3.444-1.384-6.983-1.874-10.438-2.974c-4.382-1.391-8.729-4.315-12.829-6.377c-8.341-4.212-16.647-8.498-25-12.675
				c-7.79-3.892-14.445-9.375-21.778-14.133c-52.203-33.834-95.631-80.595-121.07-136.797c-12.213-26.973-23.511-59.964-2.56-85.928
				C694.739,265.691,729.667,256.768,762.206,254.807z"/>
		</g>
		<g>
			<path fill="#FFFFFF" d="M1441.402,148.876c-28.14-4.046-55.284-9.973-77.332-29.532c-11.809-10.487-20.173-24.278-28.503-37.442
				c-8.317-13.154-16.389-26.466-26.358-38.525c-23.302-28.221-58.939-41.363-95.584-39.482
				c-37.781,1.949-74.52,18.886-103.046,42.719c-27.203,22.728-49.907,51.61-62.899,84.459
				c-13.953,35.299-8.705,74.245-14.07,111.083c-1.23,8.469-2.952,16.835-5.494,25.031c-1.089,3.511-2.483,6.929-3.948,10.315
				c-1.921,4.422-5.646,8.719-5.927,13.586c-0.234,3.898-7.486,10.339-10.098,13.085c-4.944,5.197-10.755,9.54-16.928,13.245
				c-25.644,15.386-57.158,14.224-84.947,5.836c-34.162-10.315-63.403-31.948-97.774-41.591
				c-35.122-9.871-78.901-7.352-103.795,21.953c-5.524,6.508-9.121,14.338-10.779,22.602c-1.945,9.688,1.16,19.713,2.068,29.366
				c0.837,8.89,5.336,17.228,9.126,25.28c3.509,7.466,7.416,14.743,11.563,21.89c16.249,28.038,37.448,53.154,61.604,75.01
				c53.725,48.578,123.946,79.636,197.305,83.643c19.67,1.071,39.433-0.194,58.868-3.117c19.518-2.93,38.122-9.216,56.667-15.604
				c19.599-6.748,38.917-14.265,57.907-22.511c7.896-3.426,15.863-5.574,23.594-9.421c9.115-4.547,18.183-9.181,27.262-13.803
				c19.482-9.916,39.011-19.724,58.998-28.619c4.381-1.943,8.786-3.836,13.214-5.659c5.12-2.115,11.094-2.593,16.566-3.431
				c10.391-1.595,20.888-2.507,31.385-3.122c40.429-2.376,80.904,1.145,121.357,0.735v0.928
				c-34.817,0.399-69.623-1.995-104.441-1.373c-20.946,0.382-41.857,2.159-62.406,6.24c-4.956,0.986-10.543,4.434-15.194,6.48
				c-4.312,1.904-8.599,3.87-12.864,5.853c-9.196,4.274-18.299,8.748-27.366,13.279c-17.515,8.742-34.865,17.78-52.414,26.449
				c-2.577,1.277-4.755,2.621-7.661,2.775c-5.143,0.273-11.482,4.337-16.202,6.348c-8.845,3.773-17.795,7.34-26.78,10.783
				c-18.557,7.101-37.431,13.813-56.561,19.273c-17.889,5.1-36.516,7.221-55.05,8.417c-70.735,4.576-143.31-20.636-199.532-61.696
				c-25.105-18.339-47.61-40.001-66.67-64.323c-9.794-12.509-18.486-25.834-26.154-39.687c-3.702-6.68-7.063-13.53-10.215-20.471
				c-3.034-6.674-6.403-13.239-6.848-20.545c-0.528-8.577-2.806-16.806-2.531-25.458c0.217-6.872,2.911-13.609,6.233-19.581
				c7.069-12.731,19.769-22.054,33.159-27.662c30.559-12.777,67.438-8.047,97.124,4.844c33.353,14.487,64.598,35.186,101.523,39.996
				c32.814,4.274,65.851-7.318,85.169-34.17c1.524-2.109,1.266-4.321,2.343-6.509c2.332-4.707,4.956-9.072,6.947-13.961
				c3.515-8.629,5.471-17.827,7.03-26.956c3.326-19.525,3.771-39.175,4.651-58.904c0.797-17.997,2.682-35.447,8.658-52.567
				c5.389-15.433,13.624-29.783,22.902-43.266c4.346-6.326,9.056-12.413,13.871-18.42c5.576-6.953,12.383-12.378,18.685-18.68
				c11.551-11.57,25.141-21.041,39.468-29.008c30.635-17.04,65.699-26.01,100.985-21.245c21.052,2.849,42.21,13.051,57.685,27.115
				c15.148,13.78,25.726,31.687,36.458,48.737c13.214,21.006,27.027,41.534,49.964,53.377c17.245,8.902,36.715,12.253,56.034,14.805
				v0.804H1441.402z"/>
		</g>
		<g>
			<path fill="#FFFFFF" d="M152.744,434.636c2.952-4.798,5.63-12.144,10.942-15.062c6.906-3.79,14.152-6.041,22.048-6.781
				c13.526-1.271,26.74,4.006,37.787,11.198c21.603,14.059,35.269,38.074,41.436,62.21c3.204,12.526,4.088,25.622,2.601,38.44
				c-1.189,10.32-4.035,21.394-12.874,28.05c-8.4,6.332-18.803,8.007-29.119,6.28c-13.173-2.206-22.505-11.262-31.407-20.294
				c-27.449-27.834-44.459-64.756-41.478-103.806c0.047-0.593,0.991-0.599,0.944,0c-2.572,33.708,9.729,65.458,30.956,91.707
				c9.419,11.648,20.987,25.001,35.673,30.084c12.634,4.371,27.401,2.04,36.885-7.455c9.957-9.967,10.526-27.343,10.121-40.405
				c-0.451-14.595-4.229-29.052-10.174-42.406c-11.411-25.644-35.175-50.908-65.382-52.777c-8.184-0.502-16.284,1.453-23.682,4.741
				c-7.609,3.38-10.427,10.184-14.463,16.744C153.248,435.611,152.428,435.15,152.744,434.636L152.744,434.636z"/>
		</g>
		<g>
			<path fill="#FFFFFF" d="M1441.402,159.692c-2.788-0.194-5.565-0.399-8.353-0.65c-3.772-0.342-7.532-0.82-11.293-1.39
				c-2.203-0.33-4.405-0.787-6.583-1.242c-3.058-0.638-6.795,0.261-9.735-0.502c-15.816-4.092-32.03-7.568-45.573-16.983
				c-6.478-4.502-11.352-10.954-16.518-16.754c-6.256-7.022-11.446-14.567-16.32-22.557c-9.841-16.161-17.842-33.657-29.885-48.44
				c-23.184-28.427-58.447-37.922-94.483-34.536c-34.946,3.282-67.396,21.291-92.327,44.782c-24.753,23.331-42.877,53-51.183,85.598
				c-2.412,9.46-3.186,19.16-4.499,28.813c-1.3,9.62-2.284,19.195-1.663,28.905c0.597,9.266,2.319,18.43,2.788,27.72
				c0.433,8.73-0.762,17.473-1.991,26.101c-4.535,31.721-17.608,63.224-48.044,78.645c-28.877,14.635-64.925,14.607-96.005,8.44
				c-33.213-6.593-60.649-25.103-91.542-37.618c-14.843-6.018-30.659-10.03-46.825-8.777c-17.175,1.334-35.79,9.951-44.377,25.019
				c-7.369,12.937-5.829,29.155-1.026,42.617c1.236,3.454,2.871,6.759,4.651,9.967c1.687,3.043,1.382,6.069,2.881,9.289
				c3.58,7.653,7.562,15.119,11.815,22.43c16.519,28.495,38.39,53.741,63.671,75.164c27.483,23.28,59.185,41.83,93.593,53.496
				c18.521,6.28,37.746,9.967,57.181,12.264c21.392,2.53,41.624,1.19,62.664-3.084c19.577-3.972,38.344-9.289,56.83-16.726
				c18.921-7.609,37.325-16.402,55.542-25.462c17.725-8.811,35.473-17.651,52.894-27.025c7.744-4.166,15.406-8.469,22.961-12.948
				c4.358-2.586,8.306-5.431,12.29-8.536c3.479-2.712,7.638-4.286,10.801-7.386c4.802-4.691,14.502-5.528,20.805-7.585
				c7.556-2.473,14.27-5.494,22.4-6.104c19.869-1.481,40.406,2.097,60.087,4.446c20.947,2.497,41.847,5.272,62.852,7.158
				c10.473,0.94,20.969,1.578,31.478,1.909c3.351,0.107,6.689,0.142,10.04,0.159v0.935c-2.53-0.018-5.062-0.051-7.592-0.103
				c-10.521-0.216-21.028-0.9-31.514-1.767c-20.185-1.669-40.276-4.325-60.38-6.775c-19.236-2.348-38.895-5.414-58.318-5.363
				c-8.471,0.023-17.046,1.75-24.836,4.884c-9.009,3.618-19.775,4.393-26.874,11.324c-2.401,2.353-6.995,3.915-9.747,6.063
				c-2.988,2.331-5.741,4.359-9.044,6.36c-8.166,4.948-16.531,9.58-24.943,14.128c-17.385,9.408-35.18,18.191-52.882,27.024
				c-34.688,17.308-69.68,33.146-107.896,41.306c-19.435,4.148-37.968,6.439-57.896,5.026c-18.533-1.317-37.043-4.565-54.92-9.477
				c-33.482-9.192-64.515-25.707-92.081-46.247c-25.281-18.834-47.422-41.494-65.464-67.053
				c-9.361-13.255-17.397-27.372-24.332-41.967c-1.383-2.912-1.306-6.587-2.883-9.289c-1.353-2.307-2.548-4.747-3.56-7.209
				c-2.484-6.04-4.136-12.223-4.915-18.686c-1.359-11.307,1.002-23.942,8.394-33.015c9.115-11.17,23.723-17.393,37.887-19.638
				c29.815-4.741,59.103,11.387,84.606,24.198c15.101,7.591,30.155,14.987,46.65,19.233c18.838,4.855,39.012,7.825,58.506,6.029
				c17.115-1.572,34.207-4.883,49.578-12.68c17.456-8.845,29.006-24.106,36.516-41.511c7.077-16.39,9.923-34.627,11.293-52.26
				c0.703-9.21-0.573-18.51-1.675-27.651c-1.195-9.951-1.5-19.513-0.469-29.498c1.828-17.917,4.265-35.469,9.958-52.646
				c4.932-14.909,12.675-28.54,21.638-41.477c35.298-51.029,100.68-88.71,164.973-71.727c18.088,4.775,33.833,15.273,46.169,28.882
				c15.194,16.778,24.157,38.399,36.117,57.319c6.595,10.44,15.16,20.858,24.238,29.396c8.741,8.218,20.491,12.56,31.912,15.9
				c5.295,1.55,10.684,2.849,16.038,4.217c3.222,0.82,6.49-0.194,9.595,0.524c2.906,0.672,5.823,1.243,8.763,1.744
				c6.409,1.083,12.887,1.63,19.389,2.075v0.855H1441.402z"/>
		</g>
		<g>
			<path fill="#FFFFFF" d="M1441.402,170.326c-30.717-0.57-61.622-1.094-90.582-12.32c-12.218-4.73-21.778-18.454-28.42-28.963
				c-8.213-12.97-14.034-27.263-20.666-41.032c-7.146-14.862-15.569-28.016-28.772-38.468
				c-15.019-11.887-33.985-19.091-53.199-20.391c-35.579-2.382-71.649,14.783-97.188,37.955
				c-26.524,24.072-44.284,57.023-48.677,92.152c-2.412,19.411-1.921,38.855-0.504,58.323c1.406,19.263,3.456,38.571,1.711,57.867
				c-1.546,16.948-4.791,33.544-13.73,48.361c-7.685,12.755-19.74,23.959-32.72,31.481c-14.141,8.19-31.268,10.645-47.33,12.498
				c-19.564,2.262-39.303,1.904-58.856-0.268c-36.669-4.074-70.655-17.626-105.237-29.132c-15.101-5.015-33.189-8.265-46.72,2.114
				c-17.432,13.364-6.537,42.149,0.61,58.335c13.624,30.82,35.298,59.257,60.321,82.087c12.722,11.603,26.839,21.667,41.764,30.375
				c17.281,10.082,38.356,16.27,57.791,21.034c75.668,18.539,145.209-18.134,203.961-61.143
				c28.749-21.052,56.056-44.914,87.441-62.244c14.199-7.842,29.523-11.335,45.807-9.192c9.267,1.22,17.279,4.992,25.878,8.246
				c9.56,3.619,19.236,6.901,28.995,9.945c38.238,11.933,78.175,19.012,118.323,19.536v0.912
				c-32.381-0.445-64.504-5.174-95.889-13.136c-19.059-4.838-37.757-11.01-56.08-18.043c-9.465-3.63-17.853-6.496-28.116-7.243
				c-10.017-0.729-21.322,1.573-30.33,5.677c-16.988,7.728-32.439,18.988-47.282,30.027c-13.965,10.378-27.718,21.03-41.672,31.43
				c-27.014,20.151-55.048,39.249-86.211,52.806c-32.837,14.287-68.428,21.279-104.299,17.074
				c-18.733-2.194-37.055-7.763-54.663-14.236c-16.706-6.15-31.724-14.555-46.051-24.904c-25.88-18.681-47.33-42.594-64.305-69.196
				c-9.103-14.253-17.221-29.242-22.247-45.359c-4.299-13.803-7.193-31.167,4.253-42.286c8.904-8.657,22.247-9.192,33.892-7.358
				c16.507,2.599,32.065,10.384,47.81,15.598c37.066,12.282,75.503,20.557,114.808,18.909c19.271-0.803,39.726-3.151,57.509-10.833
				c16.096-6.947,30.19-20.971,39.035-35.629c10.204-16.938,12.91-38.205,13.297-57.537c0.398-19.468-2.062-38.901-3.186-58.323
				c-2.062-35.595,1.816-71.487,20.512-102.763c15.43-25.827,37.888-47.358,65.254-60.887c30.271-14.977,65.5-19.33,96.791-5.037
				c13.062,5.962,25.222,14.874,34.02,26.101c9.653,12.333,15.605,27.047,22.189,41.079c5.167,10.987,10.673,21.827,17.819,31.731
				c3.877,5.381,8.411,10.236,13.39,14.623c7.087,6.235,15.51,8.937,24.507,11.432c24.391,6.771,49.954,6.976,75.247,7.34v0.875
				H1441.402z"/>
		</g>
		<g>
			<path fill="#FFFFFF" d="M827.565,408.895c2.53-3.141,3.373-6.059,6.314-8.931c3.093-3.025,4.885-4.707,8.904-6.417
				c3.105-1.322,5.764-2.689,9.15-2.883c5.728-0.331,11.47-0.531,17.21-0.696c20.524-0.581,41.073-0.103,61.597,0.666
				c20.607,0.775,41.202,1.932,61.798,2.866c9.899,0.451,19.81,0.826,29.71,1.111c4.956,0.142,9.91,0.239,14.866,0.314
				c4.336,0.063,10.895-1.151,14.995,0.103c6.784,2.08,14.879,2.73,20.408,7.455c4.874,4.16,10.93,9.784,11.773,16.355
				c1.981,15.548-5.657,30.353-12.511,43.819c-3.082,6.053-6.081,11.426-10.45,16.669c-4.323,5.169-9.196,9.866-14.398,14.191
				c-8.88,7.396-19.061,13.192-29.804,17.609c-36.316,14.921-78.667,10.857-114.082-4.439
				c-18.393-7.945-35.134-19.462-49.016-33.652c-15.991-16.35-29.721-40.583-26.605-63.811c0.083-0.581,1.032-0.593,0.949,0
				c-2.518,18.766,6.443,34.787,15.57,50.59c3.105,5.379,8.493,10.326,12.886,14.726c4.99,4.992,10.438,9.54,16.121,13.769
				c20.852,15.507,45.888,25.457,71.708,29.463c26.136,4.057,53.503,1.111,77.566-9.854c11.973-5.459,22.751-13.152,32.041-22.299
				c11.775-11.592,19.142-26.3,25.106-41.437c3.866-9.825,7.111-22.973,0.785-32.318c-7.896-11.671-21.896-15.878-35.603-15.941
				c-24.777-0.113-49.542-1.345-74.285-2.558c-24.673-1.214-49.344-2.416-74.052-2.679c-12.313-0.131-24.613,0.051-36.914,0.542
				c-7.158,0.285-16.425,0.912-21.755,6.451c-2.227,2.314-5.236,4.422-6.642,7.375c-0.808,1.692-1.5,3.037-2.672,4.496
				C827.858,410.018,827.189,409.362,827.565,408.895L827.565,408.895z"/>
		</g>
		<g>
			<path fill="#FFFFFF" d="M875.351,433.126c10.625-17.09,33.165-18.043,51.592-18.612c22.446-0.696,46.276,1.168,67.737,8.002
				c8.377,2.667,14.867,6.696,20.829,13.079c3.562,3.812,8.06,9.483,8.599,14.748c0.715,6.982-0.456,13.375-3.351,19.788
				c-11.586,25.662-44.517,33.173-70.536,31.11c-18.686-1.482-36.716-8.589-51.77-19.377c-7.193-5.158-14.772-11.42-18.509-19.415
				c-2.027-4.331-5.764-8.692-6.244-13.444c-0.551-5.466-0.563-10.64,1.604-15.763c0.235-0.547,1.149-0.308,0.914,0.245
				c-7.31,17.285,7.041,35.145,20.033,45.551c12.138,9.712,26.839,16.168,42.093,19.508c30.472,6.68,72.435-1.293,83.541-33.795
				c5.178-15.171-4.71-30.392-18.322-37.647c-8.694-4.628-19.026-6.639-28.668-8.325c-23.57-4.133-49.204-5.323-72.821-0.878
				c-10.93,2.057-19.87,5.989-25.903,15.695C875.854,434.101,875.034,433.64,875.351,433.126L875.351,433.126z"/>
		</g>
		<g>
			<path fill="#FFFFFF" d="M200.612,473.857c2.302-3.55,4.593-7.38,9.039-8.138c3.022-0.512,5.998,0.417,8.622,1.789
				c6.531,3.431,9.682,11.57,9.43,18.448c-0.287,7.66-6.665,12.606-14.356,10.458c-2.718-0.763-6.953-6.348-8.617-8.532
				c-3.257-4.279-4.919-8.428-4.182-13.791c0.076-0.581,1.024-0.587,0.943,0c-1.048,7.66,3.363,13.057,8.622,18.14
				c8.025,7.745,16.349,1.579,16.689-7.511c0.199-5.323-2.461-10.572-6.181-14.299c-2.219-2.229-5.196-3.471-8.317-3.853
				c-5.378-0.662-8.353,3.863-10.878,7.756C201.099,474.826,200.284,474.364,200.612,473.857L200.612,473.857z"/>
		</g>
		<g>
			<path fill="#FFFFFF" d="M1441.402,183.274c-13.578,0.445-27.167,0.479-40.722,1.151c-18.581,0.924-36.962,4.56-55.588,4.617
				c-7.908,0.022-15.733-1.061-23.314-3.26c-7.919-2.291-12.968-5.928-18.685-11.513c-4.428-4.331-5.939-11.193-7.521-16.857
				c-2.402-8.639-4.299-17.416-6.327-26.136c-3.995-17.176-8.739-34.182-17.982-49.455c-9.841-16.276-24.285-26.945-43.042-31.435
				c-35.485-8.514-71.309,7.602-95.947,31.96c-12.956,12.811-23.359,27.856-29.733,44.782c-6.104,16.207-7.884,33.669-7.744,50.823
				c0.164,19.16,3.608,37.875,6.819,56.715c3.339,19.604,6.549,39.243,9.278,58.938c1.207,8.72,2.284,17.451,3.257,26.193
				c1.172,10.486,0.809,21.656,5.647,31.298c8.587,17.114,34.418,12.533,49.016,7.095c26.992-10.07,50.645-33.959,81.491-24.306
				c14.973,4.685,27.507,15.484,38.941,25.606c6.116,5.413,12.067,10.987,18.275,16.304c3.667,3.141,7.896,5.58,11.54,8.799
				c2.12,1.864,4.123,3.864,6.139,5.831c1.746,1.715,5.072,2.616,7.368,3.806c0.938,0.484,1.981,1.641,2.718,2.354
				c2.46,2.404,5.413,3.909,8.412,5.561c5.271,2.902,10.532,5.414,16.178,7.581c10.544,4.041,21.52,6.958,32.579,9.311
				c16.097,3.42,32.51,5.209,48.946,6.298v0.912c-30.119-2.012-60.461-6.349-88.215-18.191c-7.111-3.038-14.351-6.69-19.833-12.047
				c-2.249-2.2-6.244-2.93-8.822-4.93c-4.44-3.442-8.083-7.756-12.652-11.124c-11.598-8.526-21.672-18.806-32.802-27.931
				c-11.985-9.841-25.762-18.527-41.753-19.735c-16.741-1.265-31.935,8.457-45.959,16.042
				c-12.641,6.838-25.609,13.466-40.136,15.285c-13.214,1.653-26.874-1.35-33.059-13.672c-3.21-6.389-3.304-13.644-3.972-20.573
				c-0.996-10.327-2.237-20.63-3.596-30.922c-2.694-20.448-6.045-40.828-9.501-61.162c-5.681-33.577-11.328-67.304-2.495-100.905
				c14.878-56.567,84.021-109.42,144.4-82.201c19.634,8.845,31.643,28.414,38.836,47.506c4.078,10.805,6.654,22.123,9.243,33.338
				c2.741,11.888,4.616,25.098,10.602,35.904c6.819,12.298,24.017,15.9,36.985,16.948c13.039,1.061,26.23-0.912,39.152-2.382
				c21.146-2.416,42.373-2.29,63.578-3.088L1441.402,183.274L1441.402,183.274z"/>
		</g>
		<g>
			<path fill="#FFFFFF" d="M1441.402,193.407c-50.809,3.339-107.217,11.978-137.289,55.701c-4.862,7.067-8.611,14.681-10.298,23.07
				c-2.062,10.246-0.188,20.972,2.225,30.979c4.135,17.086,10.989,32.518,21.193,46.976c20.947,29.641,52.085,49.979,87.442,59.395
				c11.996,3.197,24.332,5.049,36.727,5.933v0.894c-29.347-2.149-58.681-9.687-83.19-25.798
				c-13.027-8.554-24.683-18.978-34.676-30.78c-9.138-10.777-18.99-24.329-23.09-37.881c-4.604-15.251-10.415-31.766-7.872-47.894
				c2.237-14.168,10.414-26.547,20.043-37.101c17.691-19.41,43.007-30.045,68.334-36.187c19.764-4.799,40.113-6.907,60.451-8.23
				L1441.402,193.407L1441.402,193.407z"/>
		</g>
		<g>
			<path fill="#FFFFFF" d="M1441.402,207.346c-49.778,7.603-107.381,30.422-110.322,85.963
				c-1.617,30.387,15.335,58.648,38.169,78.047c12.23,10.383,26.675,18.253,42.022,23.262c9.759,3.186,19.915,5.067,30.131,6.462
				v0.861c-10.263-1.453-20.443-3.374-30.389-6.434c-14.971-4.61-28.714-12.555-40.851-22.203
				c-23.981-19.069-40.077-47.387-40.089-77.934c0-28.757,19.53-52.59,43.452-67.293c20.325-12.492,44.096-18.556,67.878-21.816
				L1441.402,207.346L1441.402,207.346z"/>
		</g>
		<g>
			<path fill="#FFFFFF" d="M1441.402,219.577c-40.242,9.187-83.4,31.913-87.372,75.511c-2.19,24.072,11.153,47.279,27.965,63.839
				c9.055,8.913,19.892,15.821,31.442,21.229c9.103,4.262,18.441,6.336,27.965,8.007v0.844c-9.654-1.75-19.096-3.892-28.445-8.053
				c-12.324-5.488-23.43-13.289-32.943-22.665c-16.834-16.584-28.386-39.504-26.933-63.201
				c1.429-23.252,17.901-42.947,36.715-55.793c15.324-10.463,33.284-16.88,51.606-20.812V219.577z"/>
		</g>
		<g>
			<path fill="#FFFFFF" d="M1441.402,236.343c-29.674,9.893-58.458,30.444-60.673,62.597c-2.437,35.469,28.28,61.554,60.673,72.45
				v1.008c-33.061-10.936-63.016-37.305-61.622-73.459c1.266-32.507,31.607-53.581,61.622-63.544V236.343z"/>
		</g>
		<g>
			<path fill="#FFFFFF" d="M45.528,364.91c-3.696,4.639-10.684,4.394-16.026,4.651c-9.255,0.444-18.469-0.638-27.654-2.052v-1.101
				c3.866,0.581,7.743,1.129,11.633,1.556c6.081,0.668,12.179,0.855,18.287,0.565c3.702-0.177,7.369-0.445,10.667-2.234
				c6.209-3.368,5.951-10.327,3.186-15.599c-5.389-10.298-18.486-17.644-28.608-22.772c-4.915-2.485-9.976-4.628-15.166-6.395
				v-0.866c5.998,2.04,11.856,4.547,17.578,7.443c11.065,5.608,23.659,13.968,28.65,25.565
				C49.751,357.582,47.988,361.816,45.528,364.91z"/>
		</g>
		<g>
			<path fill="#FFFFFF" d="M1441.402,253.61c-19.389,9.734-36.621,25.93-37.371,47.677c-0.808,23.343,17.056,41.113,37.371,51.695
				v1.089c-20.22-10.4-37.066-27.595-38.297-50.96c-1.218-22.83,17.854-40.303,38.297-50.481V253.61z"/>
		</g>
		<g>
			<path fill="#FFFFFF" d="M1441.402,290.665c-1.559,3.385-2.507,7.089-2.648,11.158c-0.14,4.422,0.867,8.617,2.648,12.515v1.63
				c-2.132-4.297-3.422-9.016-3.585-14.146c-0.164-4.992,1.23-9.562,3.585-13.688V290.665z"/>
		</g>
		<g>
			<path fill="#FFFFFF" d="M53.905,59.664c21.197-8.241,44.593-12.618,67.268-14.247c27.764-1.995,55.629,0.308,83.417,0.137
				c25.117-0.16,48.969-4.604,71.954-14.623c17.35-7.557,33.306-17.918,47.739-29.965h1.4
				c-20.923,17.519-44.915,31.288-71.474,39.061c-35.28,10.337-72.762,5.551-108.997,5.551c-35.895,0-74.713,4.969-106.649,22.123
				c-7.45,4-14.245,9.05-20.39,14.771c-2.67,2.485-6.449,5.938-5.716,10.041c0.539,3.032,3.479,5.54,5.722,7.421
				c4.364,3.647,8.816,7.18,13.496,10.44c15.318,10.657,34.495,14.51,52.396,19.092c18.902,4.832,38.086,8.936,57.117,13.289
				c9.003,2.052,18.047,3.898,27.144,5.494c4.031,0.707,8.98,0.696,12.746,2.223c0.434,0.182,0.961,0.797,1.154,0.969
				c2.103,1.88,5.699,1.926,8.377,2.495c32.533,6.953,59.852,24.084,84.793,45.193c24.941,21.121,46.861,45.375,71.035,67.304
				c6.42,5.814,12.939,11.626,20.051,16.629c3.373,2.382,6.607,4.936,9.999,7.295c3.373,2.337,7.744,3.625,10.637,6.44
				c4.838,4.741,12.77,7.682,18.768,10.93c7.099,3.853,15.37,7.967,23.652,5.642c8.184-2.303,13.731-14.111,17.748-20.789
				c4.452-7.409,8.347-15.137,12.541-22.694c3.492-6.28,7.241-12.537,11.734-18.203c2.483-3.134,5.113-6.085,7.96-8.912
				c2.777-2.759,4.171-6.543,7.006-9.426c11.622-11.843,25.604-21.075,40.008-29.362c16.629-9.551,33.347-19.012,50.188-28.21
				c32.14-17.529,64.574-33.498,101.505-38.114c37.236-4.65,74.895-3.248,112.16-7.921c5.484-0.684,10.895-1.242,16.131-3.054
				c4.933-1.71,9.689-3.716,14.715-5.175c10.379-2.997,19.892-6.326,29.335-11.648c19.283-10.885,37.09-24.689,54.92-37.659
				c31.924-23.217,63.192-47.289,94.554-71.236h1.534c-26.018,19.844-51.968,39.779-78.257,59.28
				c-16.121,11.956-32.276,23.97-48.899,35.254c-14.128,9.574-28.164,19.308-44.588,24.722c-8.329,2.735-16.694,5.14-24.988,8.024
				c-7.767,2.689-17.022,2.928-25.153,3.887c-18.803,2.188-37.781,2.576-56.672,3.26c-19.388,0.718-38.771,1.801-57.878,5.231
				c-19.653,3.522-37.665,10.794-55.548,19.296c-17.151,8.162-33.792,17.303-50.316,26.603
				c-16.184,9.107-32.762,17.827-48.231,28.062c-7.41,4.902-14.345,10.43-20.818,16.459c-3.274,3.054-5.271,6.109-7.726,9.768
				c-2.091,3.112-5.307,5.608-7.784,8.469c-11.27,12.959-18.024,29.133-26.617,43.768c-5.371,9.153-12.6,23.73-25.673,21.861
				c-6.139-0.878-11.622-3.521-17.017-6.382c-3.087-1.63-6.104-3.386-9.166-5.05c-2.859-1.56-6.215-2.519-8.536-4.786
				c-3.286-3.214-7.86-5.015-11.708-7.546c-3.445-2.257-6.672-4.855-9.999-7.283c-6.573-4.788-12.693-10.042-18.756-15.445
				c-12.301-10.976-23.97-22.613-35.69-34.17c-23.32-22.978-47.136-45.831-75.885-62.313c-16.419-9.426-33.459-14.783-52.015-18.486
				c-2.373-0.48-3.45-2.417-6.174-2.805c-4.692-0.672-9.361-1.481-14.016-2.325c-9.812-1.778-19.541-3.955-29.247-6.223
				c-18.979-4.422-38.11-8.457-56.942-13.438c-16.964-4.49-33.312-8.605-47.804-18.692c-5.722-3.979-12.084-8.401-16.313-13.895
				c-3.96-5.162-0.896-8.993,2.899-12.856C26.566,72.544,39.934,65.089,53.905,59.664z"/>
		</g>
		<g>
			<path fill="#FFFFFF" d="M89.776,82.311c4.978-4.547,12.447-6.553,18.767-8.479c8.564-2.611,17.503-3.933,26.406-4.856
				c19.313-2.017,39.416,0.947,58.769,1.482c20.28,0.559,40.3-1.117,59.449-8.001c16.806-6.029,32.791-14.111,47.863-23.503
				c17.344-10.817,33.2-23.754,47.703-37.989h1.3c-20.607,20.243-43.891,37.647-69.922,50.857
				c-15.434,7.842-31.854,14.453-49.016,17.485c-18.487,3.26-37.53,2.246-56.18,1.299C154.8,69.592,135.165,68.6,115.361,73
				c-9.097,2.028-19.266,4.81-26.201,11.147c-10.304,9.426,5.232,20.048,13.227,23.946c6.917,3.374,14.707,4.992,22.27,6.269
				c9.654,1.631,18.978,4.331,28.432,6.782c18.387,4.753,37.752,5.745,55.665,12.504c16.377,6.2,32.11,13.722,46.462,23.628
				c13.449,9.289,25.703,20.14,37.506,31.332c25.352,24.016,48.623,51.462,78.643,70.177c16.121,10.054,33.242,13.188,50.358,3.831
				c12.927-7.079,22.762-18.841,33.049-28.996c5.137-5.072,11.17-8.321,16.337-13.37c6.555-6.405,13.982-11.466,21.684-16.493
				c15.674-10.236,32.34-18.897,48.624-28.141c32.516-18.488,64.427-37.841,100.358-49.445c17.859-5.767,36.398-9.505,55.183-10.588
				c20.379-1.186,40.646-0.854,61.007-3.054c19.47-2.097,38.754-4.058,57.275-10.679c18.874-6.759,35.391-18.556,52.167-29.111
				c16.249-10.224,31.878-21.314,47.658-32.211c15.85-10.942,32.321-21.177,47.879-32.494c3.233-2.348,6.479-4.697,9.7-7.067h1.711
				c-25.563,19.069-52.766,36.2-78.996,54.322c-16.143,11.147-32.638,21.747-49.379,32.051
				c-15.464,9.517-31.372,16.778-49.215,20.881c-18.065,4.136-37.419,5.402-55.881,6.793c-20.754,1.572-41.718,0.376-62.324,3.373
				c-39.187,5.689-74.913,22.864-108.834,42.059c-16.682,9.438-33.312,18.966-50.023,28.346
				c-16.566,9.311-34.331,18.829-47.927,32.107c-2.466,2.417-4.793,5.266-7.721,7.148c-3.18,2.028-5.899,3.578-8.617,6.223
				c-5.324,5.197-10.414,10.6-15.815,15.728c-9.302,8.833-19.91,16.641-32.902,19.057c-14.914,2.759-29.253-4.912-41.114-12.902
				c-14.006-9.415-26.453-20.95-38.543-32.564c-24.953-23.97-48.32-49.661-77.455-68.979c-15.54-10.305-34.407-18.659-52.513-23.435
				c-18.147-4.798-36.733-7.078-54.851-11.967c-15.077-4.081-31.267-4.811-44.974-12.778c-5.149-2.997-9.237-7.305-12.242-12.332
				C82.53,89.914,86.929,84.922,89.776,82.311z"/>
		</g>
		<g>
			<path fill="#FFFFFF" d="M1117.701,148.237c4.757-42.913,51.945-89.121,98.443-79.078c11.949,2.576,22.152,9.756,30.19,18.544
				c2.436,2.668,3.573,6.417,5.166,9.609c1.441,2.918,4.874,6.929,5.436,10.041c1.16,6.406,1.934,12.846,2.355,19.343
				c1.699,26.409-3.338,53.273-14.21,77.471c-8.739,19.433-22.025,36.871-39.105,50.037c-7.275,5.607-16.53,12.651-25.961,13.37
				c-10.543,0.797-17.853-1.904-25.913-8.354c-15.113-12.106-23.817-31.23-29.57-49
				C1118.146,190.477,1115.135,168.867,1117.701,148.237c0.071-0.581,1.02-0.593,0.949,0c-3.339,26.83,2.46,55.301,13.835,79.773
				c5.307,11.432,12.488,22.317,22.282,30.546c5.542,4.662,11.622,7.888,18.991,8.241c9.219,0.455,15.908-2.963,23.453-7.648
				c25.024-15.501,42.222-40.656,51.957-67.601c4.885-13.484,7.709-27.662,8.926-41.898c0.551-6.555,0.633-13.13,0.41-19.696
				c-0.246-7.272,0.152-17.781-3.573-24.198c-2.637-4.571-4.955-9.323-7.217-14.099c-1.969-4.16-5.87-7.409-9.361-10.361
				c-6.08-5.163-13.344-8.799-21.075-10.908c-14.995-4.103-30.998-0.546-44.659,5.996c-27.601,13.199-50.632,41.625-53.971,71.853
				C1118.579,148.829,1117.642,148.829,1117.701,148.237L1117.701,148.237z"/>
		</g>
		<g>
			<path fill="#FFFFFF" d="M278.74,76.021c32.41-22.158,62.196-47.53,89.879-75.055h1.324
				c-21.117,21.086-43.446,41.01-67.379,59.041c-14.099,10.612-29.58,19.65-43.328,30.649c-6.39,5.106-11.939,11.968-10.216,20.47
				c0.896,4.411,4.428,8.673,6.982,12.332c3.403,4.867,7.292,9.415,11.147,13.951c12.032,14.18,25.908,26.705,39.563,39.357
				c13.718,12.697,25.773,27.549,40.453,39.128c15.733,12.424,33.405,24.871,54.803,21.292c9.32-1.551,18.188-7.432,26.335-11.889
				c8.763-4.788,17.321-9.916,25.827-15.125c33.704-20.619,67.384-41.032,102.003-60.192
				c32.837-18.169,66.243-37.477,103.046-46.755c38.232-9.643,78.498-4.924,117.24-11.614c20.536-3.545,38.59-10.612,56.712-20.539
				c17.07-9.345,33.67-19.49,50.012-29.999c20.033-12.879,39.585-26.431,59.055-40.109h1.593
				c-26.815,18.818-53.819,37.408-81.853,54.493c-15.745,9.597-32.146,20.3-49.379,27.15c-17.48,6.941-36.118,10.612-54.827,12.527
				c-19.682,2.017-39.504,2.165-59.244,3.385c-20.045,1.242-39.24,4.821-58.23,11.238c-19.077,6.451-36.938,16.128-54.686,25.405
				c-17.421,9.119-34.601,18.659-51.681,28.358c-34.15,19.399-66.912,40.998-101.072,60.33
				c-13.713,7.761-28.286,17.222-44.893,14.498c-17.08-2.793-30.072-12.834-43.182-23.172c-7.258-5.733-13.063-12.662-19.465-19.239
				c-6.706-6.919-13.789-13.484-20.864-20.026c-13.689-12.687-27.326-25.337-39.386-39.551
				c-7.932-9.346-21.416-22.192-15.839-35.345C254.01,89.652,269.064,82.631,278.74,76.021z"/>
		</g>
		<g>
			<path fill="#FFFFFF" d="M310.793,93.858c5.963-12.686,16.46-23.07,26.125-33.088c4.897-5.083,9.418-10.645,14.52-15.524
				c7.018-6.702,14.211-12.834,20.812-19.969c7.685-8.287,15.961-16.014,23.611-24.312h1.306
				c-8.798,9.677-18.474,18.579-27.272,28.267c-5.963,6.565-12.922,12.024-19.342,18.146c-5.419,5.174-10.239,11.215-15.446,16.618
				c-10.819,11.238-21.69,23.058-26.565,38.035c-2.776,8.536-2.067,15.809,1.125,24.037c3.157,8.15,7.445,15.844,12.289,23.139
				c9.097,13.723,21.022,25.531,34.091,35.663c7.339,5.687,14.995,11.147,23.987,13.974c10.104,3.18,20.396,3.966,30.71,1.402
				c17.509-4.353,34.906-12.355,51.26-19.741c17.017-7.694,33.312-16.835,49.32-26.34c32.029-19.001,62.98-39.802,96.474-56.362
				c15.599-7.717,31.888-14.134,48.911-18.134c7.756-1.836,15.674-2.918,23.623-3.465c4.376-0.308,8.769-0.285,13.144-0.148
				c4.171,0.125,7.077-2.188,11.041-2.36c20.104-0.866,40.266-1.242,60.122-4.729c19.272-3.386,37.618-10.908,55.155-19.205
				c28.198-13.347,54.253-30.581,79.405-48.795h1.558C875.819,19.02,850.069,36.003,822.258,49.6
				c-16.085,7.864-33.002,14.795-50.539,18.875c-18.1,4.195-36.868,4.924-55.383,5.664c-4.681,0.183-10.064-0.261-14.538,1.106
				c-3.046,0.923-5.09,1.88-8.318,1.732c-10.104-0.49-20.25,0.49-30.184,2.268c-18.527,3.295-36.212,10.327-53.046,18.396
				c-33.657,16.117-64.644,37.066-96.521,56.18c-30.74,18.419-62.845,33.965-96.919,45.557c-15.3,5.197-30.728,3.875-45.39-2.861
				c-6.285-2.896-12.143-7.979-17.566-12.185c-6.59-5.106-12.705-10.782-18.429-16.8c-10.491-11.056-19.031-23.811-25.175-37.636
				c-2.636-5.927-4.909-11.455-4.546-17.952C306.054,105.643,308.111,99.557,310.793,93.858z"/>
		</g>
		<g>
			<path fill="#FFFFFF" d="M346.613,98.577c-5.008,19.467,2.559,36.097,15.815,50.527c11.305,12.31,26.916,20.437,43.962,20.915
				c9.172,0.251,18.803-2.246,27.659-4.355c9.489-2.268,18.744-5.379,27.812-8.924c9.132-3.568,17.982-8.081,27.05-11.877
				c9.12-3.818,17.643-8.663,26.148-13.621c31.695-18.476,59.624-42.331,93.082-57.946c15.341-7.158,31.537-12.413,48.19-15.706
				c17.315-3.42,35.228-4.321,52.795-5.825c28.163-2.393,56.409-5.379,83.13-14.92c22.891-8.172,43.944-21.621,63.73-35.88h1.488
				c-25.586,18.26-52.788,34.536-83.692,42.491c-34.7,8.925-71.053,8.868-106.456,13.324
				c-36.761,4.628-70.296,20.972-100.532,41.261c-15.828,10.622-31.039,21.896-47.418,31.731
				c-7.732,4.639-15.563,9.255-23.723,13.13c-8.932,4.252-18.323,7.478-27.179,11.9c-14.627,7.295-31.274,11.603-47.359,14.52
				c-13.813,2.497-26.47,1.687-39.222-4.399c-12.166-5.79-21.895-15.798-29.224-26.729c-8.264-12.332-10.643-25.577-6.964-39.858
				C345.851,97.756,346.765,98.007,346.613,98.577z"/>
		</g>
		<g>
			<path fill="#FFFFFF" d="M352.253,83.11c3.105-5.004,6.455-9.859,9.893-14.646c6.73-9.358,14.128-18.248,21.749-26.921
				c12.195-13.883,25.181-27.082,37.822-40.577h1.294c-12.336,13.221-24.994,26.146-37.031,39.63
				c-8.119,9.096-15.839,18.521-23.015,28.335c-3.479,4.764-6.748,9.666-9.893,14.646c-3.016,4.754-3.339,10.475-6.507,15.113
				c-0.335,0.49-1.154,0.035-0.815-0.467C348.891,93.619,349.301,87.862,352.253,83.11z"/>
		</g>
		<g>
			<path fill="#FFFFFF" d="M1165.627,135.939c5.729-9.597,16.824-24.153,29.627-18.135c9.653,4.548,10.99,15.73,8.611,24.813
				c-2.319,8.845-10.18,20.972-20.256,22.295c-17.034,2.234-19.669-16.277-18.041-28.746c0.083-0.581,1.02-0.581,0.949,0
				c-0.726,5.505-0.937,10.873,0.445,16.31c2.05,8.036,11.013,14.727,19.518,10.805c7.967-3.669,13.402-11.808,16.108-19.718
				c2.87-8.344,1.898-18.066-5.647-23.673c-12.36-9.176-24.931,7.169-30.495,16.515
				C1166.143,136.918,1165.323,136.452,1165.627,135.939L1165.627,135.939z"/>
		</g>
		<g>
			<path fill="#FFFFFF" d="M400.671,90.917c-1.142,9.86,2.672,18.647,9.865,25.521c6.765,6.462,16.729,8.194,25.808,8.343
				c19.154,0.308,38.872-8.058,55.43-16.653c32.487-16.845,58.394-43.084,90.207-60.83c32.702-18.248,72.094-21.097,108.792-24.608
				c21.005-2.005,42.011-4.183,62.6-8.878c12.687-2.884,24.32-7.204,35.45-12.846h2.05c-10.275,5.357-20.947,9.586-32.685,12.628
				c-18.815,4.89-38.28,7.124-57.598,9.073c-39.984,4.035-82.176,6.006-118.136,25.429c-15.599,8.423-29.457,19.65-43.574,30.181
				c-14.914,11.124-30.131,21.862-46.626,30.649c-23.454,12.492-65.5,29.212-86.353,3.898c-5.072-6.156-7.075-14.156-6.173-21.907
				C399.793,90.324,400.742,90.324,400.671,90.917z"/>
		</g>
		<g>
			<path fill="#FFFFFF" d="M429.256,40.048c7.223-8.628,14.475-17.268,22.3-25.383c4.464-4.616,9.056-9.096,13.52-13.7h1.347
				c-4.124,4.308-8.389,8.491-12.594,12.731c-7.469,7.512-14.258,15.615-21.088,23.673c-13.695,16.163-26.452,33.1-32.088,53.662
				c-0.157,0.581-1.065,0.342-0.907-0.239C405.012,71.575,416.504,55.264,429.256,40.048z"/>
		</g>
		<g>
			<path fill="#FFFFFF" d="M50.916,28.457c26.172-5.962,52.607-8.937,79.376-10.714c27.572-1.835,55.249-0.194,82.809-2.37
				c14.256-1.129,28.25-3.625,41.981-7.546c5.805-1.653,11.31-4.126,16.711-6.862h1.893c-3.996,2.052-8.044,3.989-12.237,5.596
				c-12.395,4.764-25.72,7.146-38.888,8.776c-27.453,3.42-55.278,1.87-82.867,2.862c-28.233,1.003-56.344,4.285-83.956,10.144
				c-13.789,2.93-27.408,6.565-40.898,10.612c-4.352,1.311-8.675,2.701-12.992,4.114v-0.603c3.526-1.277,7.034-2.645,10.485-3.716
				C25.05,34.829,37.93,31.421,50.916,28.457z"/>
		</g>
		<g>
			<path fill="#FFFFFF" d="M1415.757,0.965c8.083,9.95,16.507,19.616,25.645,28.609v1.311c-9.607-9.37-18.405-19.502-26.852-29.92
				C1414.55,0.965,1415.757,0.965,1415.757,0.965z"/>
		</g>
		<g>
			<path fill="#FFFFFF" d="M1436.423,0.965c1.64,2.234,3.292,4.446,4.979,6.645v1.516c-2.097-2.679-4.123-5.413-6.151-8.161
				C1435.251,0.965,1436.423,0.965,1436.423,0.965z"/>
		</g>
		<g>
			<path fill="#FFFFFF" d="M41.826,16.102C64.501,9.879,86.982,5.399,110.489,3.689c23.741-1.732,47.575-1.88,71.362-2.53
				c2.343-0.069,4.692-0.125,7.041-0.194h19.313c-5.46,0.376-10.96,0.605-16.49,0.809c-24.595,0.901-49.221,0.958-73.799,2.36
				C92.728,5.559,68.701,9.798,44.41,16.353c-11.669,3.157-23.243,6.713-35.035,9.402c-2.495,0.571-5.007,1.083-7.526,1.562v-1.003
				c1.675-0.32,3.356-0.627,5.031-0.969C18.676,22.952,30.234,19.281,41.826,16.102z"/>
		</g>
		<g>
			<path fill="#FFFFFF" d="M52.211,1.855c0.955-0.308,1.904-0.593,2.853-0.889h3.655c-3.462,0.969-6.923,2.006-10.414,3.145
				c-11.809,3.864-23.946,6.11-36.048,8.937c-3.468,0.809-6.935,1.595-10.409,2.347V14.45c4.147-0.901,8.282-1.858,12.423-2.815
				C27.094,8.636,39.7,5.969,52.211,1.855z"/>
		</g>
	</g>
</g>
</svg>
